<?xml version="1.0" encoding="utf-8"?>
<!-- Generator: Adobe Illustrator 19.0.0, SVG Export Plug-In . SVG Version: 6.00 Build 0)  -->
<svg version="1.1" id="layer" xmlns="http://www.w3.org/2000/svg" xmlns:xlink="http://www.w3.org/1999/xlink" x="0px" y="0px"
	 viewBox="-153 -46 652 652" style="enable-background:new -153 -46 652 652;" xml:space="preserve">
<style type="text/css">
	.st0{fill:#FE5E00;}
</style>
<path class="st0" d="M-108.5,255.9l-7.5-6.6l7.8-7.7l6.7,7.4c1.4-1,2.8-2,4.3-2.8l-4.4-8.9l10.2-4.2l3.3,9.3c1.7-0.4,3.3-0.8,5-1
	l-0.6-9.9h11.1l-0.6,9.9c1.7,0.2,3.4,0.5,5,1l3.3-9.3l10.2,4.2l-4.2,8.9c1.5,0.8,2.9,1.8,4.3,2.8l6.7-7.4l7.8,7.7l-7.5,6.6
	c1,1.3,2,2.7,2.9,4.2l9-4.3l4.2,10.1l-9.5,3.3c0.4,1.6,0.8,3.3,1,4.9l10-0.5v10.9l-10-0.5c-0.2,1.7-0.6,3.3-1,4.9l9.5,3.3l-4.2,10.1
	l-9-4.3c-0.9,1.5-1.8,2.9-2.9,4.2l7.5,6.6l-7.8,7.7l-6.7-7.4c-1.4,1-2.8,2-4.3,2.8l4.4,8.9l-10.2,4.2l-3.3-9.3c-1.7,0.4-3.3,0.8-5,1
	l0.6,9.9h-11.1l0.6-9.9c-1.7-0.2-3.4-0.5-5-1l-3.3,9.3l-10.2-4.2l4.4-8.9c-1.5-0.8-2.9-1.8-4.3-2.8l-6.7,7.4l-7.8-7.7l7.5-6.6
	c-1-1.3-2-2.7-2.9-4.2l-9,4.3l-4.2-10.1l9.5-3.3c-0.4-1.6-0.8-3.3-1-4.9l-10,0.5v-10.9l10,0.5c0.2-1.7,0.5-3.3,1-4.9l-9.5-3.3
	l4.2-10.1l9.1,4.3C-110.5,258.6-109.5,257.2-108.5,255.9z M-101.3,279c-0.1,4.6,1.2,9.2,3.8,13.1c2.5,3.9,6.1,6.9,10.4,8.8
	c4.3,1.8,9,2.3,13.5,1.5c4.6-0.9,8.7-3.1,12.1-6.3c3.3-3.3,5.6-7.4,6.5-12c0.9-4.5,0.5-9.3-1.3-13.5c-1.8-4.3-4.7-8-8.6-10.5
	c-3.8-2.6-8.4-4-13-4c-3,0-6.1,0.6-8.9,1.7c-2.8,1.1-5.4,2.8-7.6,5c-2.2,2.1-3.9,4.7-5.1,7.5C-100.7,272.9-101.3,275.9-101.3,279z
	 M431.5,254.4l37.1,36.7v-34.8h5.3v46.9l-37.1-36.6v34.6h-5.3V254.4z M366.8,278.7c0,10.1,8.7,18.6,19.5,18.6s19.5-8.5,19.5-18.6
	c0-10.1-8.6-18.6-19.5-18.6C375.4,260.1,366.8,268.5,366.8,278.7z M411,278.8c0,12.9-11.2,23.2-24.8,23.2s-24.8-10.2-24.8-23.2
	c0-12.9,11.2-23.3,24.8-23.3S411,265.9,411,278.8L411,278.8z M339.4,265c-1.9-3.1-4.2-4.9-8.2-4.9c-4.2,0-7.9,2.9-7.9,7
	c0,3.9,4.2,5.7,7.4,7l3.2,1.3c6.2,2.6,11.4,5.5,11.4,12.6c0,7.9-6.7,13.9-14.9,13.9c-7.6,0-13.3-4.6-14.8-11.6l5.2-1.4
	c0.3,2.3,1.4,4.5,3.2,6c1.8,1.5,4,2.4,6.4,2.4c5.1,0,9.8-3.7,9.8-8.7c0-5.1-4.4-7-8.8-8.9l-2.9-1.2c-5.5-2.4-10.3-5.1-10.3-11.5
	c0-7,6.2-11.4,13.3-11.4c2.5-0.1,4.9,0.6,7.1,1.8c2.2,1.2,4,3,5.2,5.2L339.4,265z M277.9,277.1h1.6c6,0,12-1.1,12-8
	c0-7.4-5.7-8.1-12.1-8.1h-1.6L277.9,277.1z M277.9,301.2h-5.3v-44.9h6.9c9,0,17.4,2.3,17.4,12.4c0,6.9-4.6,11.8-12,12.4l15.1,20.1
	h-6.5l-14.3-19.7h-1.3L277.9,301.2z M227.5,256.3H252v4.6h-19.3v13.4h18.8v4.6h-18.8v17.6H252v4.6h-24.6V256.3z M189.2,276.9h3.6
	c5.9,0,10.8-1.7,10.8-8.1c0-7.3-6.2-7.9-12.4-7.9h-1.9L189.2,276.9z M189.2,301.2h-5.3v-44.9h7.8c4.1,0,8.4,0.1,11.8,2.4
	c1.7,1.1,3,2.7,4,4.4c0.9,1.8,1.4,3.8,1.4,5.8c0,1.8-0.4,3.7-1.2,5.3c-0.8,1.7-1.9,3.1-3.4,4.3c-3.2,2.5-7.3,3-11.3,3h-3.8
	L189.2,301.2z M145.7,263.9v9.9h14.2v7.6h-14.2v12.2h14.7v7.6h-23.6v-44.9h23.6v7.6H145.7z M99.8,283l10.9-26.7h9.6L100,303.7
	l-20.1-47.4h9.6L99.8,283z M63.4,301.2h-8.9v-44.9h8.9V301.2z M24.9,293.6h12.6v7.6H16v-44.9h8.9V293.6z"/>
</svg>
