<svg width="165" height="40" viewBox="0 0 165 40" fill="none" xmlns="http://www.w3.org/2000/svg">
<path d="M145.212 10.3952C145.475 10.1799 145.674 10.1321 147.779 10.1241C151.015 10.1162 150.824 9.94077 151.278 10.4032C151.637 10.8974 151.549 10.8895 151.549 10.8895L152.466 14.1341L153.327 17.0598C153.327 17.0598 153.718 18.455 153.997 19.4594C154.276 20.4639 154.858 22.7121 154.938 23.0708C155.017 23.4296 155.009 23.4854 154.961 23.6847C154.882 24.0593 154.666 24.4021 154.427 24.6971C154.021 25.2073 153.526 25.6697 152.96 25.9886C152.618 26.1799 152.203 26.4749 151.828 26.3473C151.581 26.2676 151.374 25.7175 151.374 25.7175C151.374 25.7175 150.656 23.7564 150.09 22.4649C149.524 21.1734 148.807 19.5551 148.177 18.1281C147.547 16.7011 146.854 15.1226 146.328 13.9188C145.801 12.7151 144.725 10.7699 145.204 10.3952" fill="#4EADF8"/>
<path d="M159.458 10.4987C159.649 10.2516 159.737 10.1559 160.574 10.14C161.818 10.1081 162.974 10.1559 164.09 10.2276C164.48 10.2516 164.664 10.8495 164.64 11.272C164.616 11.6865 164.361 12.3163 164.265 12.683C164.09 13.2969 163.731 14.1977 163.452 14.9391C163.173 15.6885 162.822 16.5495 162.822 16.5495L161.172 20.6232L160 23.5331C159.362 25.1434 159.211 25.5819 158.74 26.7618C158.238 28.0293 157.744 26.6501 156.939 25.4623C156.197 24.394 156.317 24.5057 156.269 24.402C156.078 24.0194 155.894 23.844 156.078 23.1345C156.492 21.4763 156.779 20.4399 157.242 18.7737C157.948 16.2439 158.403 14.5751 158.605 13.7673C158.9 12.5555 159.027 11.6546 159.027 11.6546C159.027 11.6546 159.067 10.8814 159.466 10.4987" fill="#97D744"/>
<path d="M155.296 25.8937C154.762 25.8857 154.634 26.2365 154.013 26.8663C153.207 27.6794 152.809 27.8309 153.016 28.3969C153.263 29.0586 154.021 28.9311 155.065 28.9869C156.293 29.0506 156.883 29.2499 157.225 28.6122C157.528 28.0462 157.241 28.0063 156.452 26.8424C155.862 25.9734 155.798 25.9096 155.296 25.8937Z" fill="#97D744"/>
<path d="M19.7309 22.896C19.7309 28.4924 15.697 31.2906 7.63726 31.2906C4.89486 31.2906 2.35177 30.9638 0 30.3021L1.05232 25.5189C3.38017 26.3161 5.57249 26.7226 7.63726 26.7226C9.93322 26.7226 11.5834 26.4994 12.5879 26.061C13.5924 25.6145 14.0947 24.8731 14.0947 23.8288C14.0947 22.7844 13.6243 21.8278 12.6756 21.0784C11.8545 20.4167 10.2043 19.5637 7.70901 18.5034C5.44494 17.5308 3.75485 16.4705 2.65471 15.3305C1.25959 13.8876 0.566018 12.1018 0.566018 9.98923C0.566018 7.52585 1.48281 5.60458 3.30842 4.21743C5.13403 2.83029 7.76482 2.13672 11.1928 2.13672C14.007 2.13672 16.3667 2.37588 18.272 2.84623L17.4748 7.61354C15.5376 6.912 13.4489 6.56123 11.1928 6.56123C7.80468 6.56123 6.11459 7.46207 6.11459 9.26377C6.11459 10.2204 6.50523 11.0017 7.29446 11.5996C7.98006 12.1178 9.47882 12.8353 11.7907 13.768C14.2461 14.7565 16.0797 15.8407 17.2994 17.0286C18.9178 18.615 19.7309 20.5762 19.7309 22.912" fill="#003B72"/>
<path d="M39.7487 18.1366C39.7487 18.87 39.7089 19.8187 39.6212 20.9906L25.7657 21.2298C25.965 22.8481 26.6585 24.1874 27.8544 25.2637C29.0422 26.3399 30.6047 26.874 32.5419 26.874C34.6944 26.874 36.9824 26.5551 39.4059 25.9094L38.9754 30.0708C36.9983 30.7883 34.5429 31.1471 31.6172 31.1471C27.9181 31.1471 25.0801 30.1107 23.111 28.0379C21.1419 25.9652 20.1533 23.4699 20.1533 20.5522C20.1533 17.6344 21.0861 14.8601 22.9595 12.6199C24.8329 10.3798 27.4318 9.26367 30.7562 9.26367C33.8015 9.26367 36.0576 10.0848 37.5325 11.735C39.0073 13.3852 39.7487 15.5218 39.7487 18.1526V18.1366ZM34.7104 17.9612C34.7104 14.6687 33.3073 13.0265 30.4931 13.0265C27.679 13.0265 26.2201 14.7325 25.7178 18.1366L34.7104 17.9692V17.9612Z" fill="#003B72"/>
<path d="M72.7455 30.5168H67.0454C67.3483 26.8975 67.4998 23.3738 67.4998 19.9618C67.4998 17.4028 67.173 15.7286 66.5113 14.9394C65.8496 14.1501 64.7973 13.7595 63.3464 13.7595C62.1824 13.7595 60.9627 14.182 59.6712 15.0271C59.6154 16.8128 59.5835 18.4152 59.5835 19.8342C59.5835 22.2259 59.6234 25.7894 59.7111 30.5248H53.9473C54.2661 26.6025 54.4176 22.7919 54.4176 19.0849C54.4176 17.1716 54.1466 15.8004 53.6124 14.9872C53.0703 14.1741 51.9622 13.7675 50.2642 13.7675C48.7016 13.7675 47.4022 14.2936 46.3658 15.33C46.4376 20.9982 46.4694 26.0604 46.4694 30.5248H40.6817C40.9368 26.0604 41.0723 22.5368 41.0723 19.9698C41.0723 16.6215 40.7216 13.3928 40.02 10.2916L45.5287 9.69374L45.8954 11.9658H46.2382C48.1037 10.2757 50.2084 9.43066 52.5442 9.43066C55.4699 9.43066 57.5267 10.2757 58.7225 11.9658H59.0653C61.1859 10.2757 63.2906 9.43066 65.3713 9.43066C67.8107 9.43066 69.6523 9.95682 70.888 11.0091C72.1316 12.0615 72.7455 13.9668 72.7455 16.7251C72.7455 16.9962 72.7295 17.5144 72.7056 18.2797C72.6817 19.045 72.6657 19.5632 72.6657 19.8342C72.6657 22.2259 72.6976 25.7894 72.7534 30.5248L72.7455 30.5168Z" fill="#003B72"/>
<path d="M92.285 30.4931L87.2068 30.6605C86.9756 30.0626 86.864 29.5205 86.864 29.0342H86.585C85.0065 30.3815 82.878 31.0511 80.1914 31.0511C78.3976 31.0511 76.9148 30.5569 75.727 29.5604C74.5471 28.5638 73.9492 27.2484 73.9492 25.5982C73.9492 23.4218 74.874 21.6441 76.7155 20.2569C78.5571 18.8698 81.7858 18.1284 86.4096 18.0487C86.4415 17.7935 86.4495 17.5464 86.4495 17.3232C86.4495 15.7766 86.0748 14.7562 85.3334 14.2619C84.584 13.7676 83.2208 13.5205 81.2277 13.5205C79.0593 13.5205 76.9467 13.8075 74.882 14.3815L75.3523 10.4353C77.3055 9.76565 80.0558 9.42285 83.6114 9.42285C86.2103 9.42285 88.2113 9.96495 89.6223 11.0571C91.0334 12.1413 91.7429 14.0467 91.7429 16.7651C91.7429 17.3631 91.719 18.4632 91.6712 20.0496C91.6233 21.6361 91.5914 22.6964 91.5914 23.2225C91.5914 26.1802 91.8226 28.6117 92.277 30.4931H92.285ZM86.5292 26.0287C86.4415 24.0995 86.4016 22.4333 86.4016 21.0302C81.5147 21.0302 79.0673 22.2659 79.0673 24.7452C79.0673 26.4433 80.1435 27.2963 82.296 27.2963C83.9861 27.2963 85.4051 26.8738 86.5371 26.0287" fill="#003B72"/>
<path d="M107.918 10.1324L106.667 15.1548C105.606 14.7243 104.53 14.509 103.438 14.509C101.333 14.509 99.9381 15.4498 99.2605 17.3391C99.2605 23.0472 99.3004 27.4398 99.3881 30.517H93.6641C93.9112 26.2121 94.0308 22.6884 94.0308 19.962C94.0308 16.5579 93.6721 13.3292 92.9546 10.2838L98.4394 9.68593C98.6865 11.2564 98.8061 12.1812 98.8061 12.4522H99.1489C100.472 10.4353 102.226 9.42285 104.418 9.42285C105.447 9.42285 106.611 9.66201 107.902 10.1324" fill="#003B72"/>
<path d="M124.221 26.0124L123.854 30.1101C122.547 30.7957 120.777 31.1385 118.537 31.1385C114.838 31.1385 111.992 30.1101 110.007 28.0453C108.022 25.9885 107.025 23.5092 107.025 20.6153C107.025 17.7215 108.07 14.987 110.142 12.7469C112.223 10.5067 115.069 9.39062 118.681 9.39062C120.442 9.39062 122.013 9.58993 123.392 9.98853L122.659 14.3652C121.343 13.8231 119.86 13.5521 118.226 13.5521C116.488 13.5521 115.117 14.1659 114.121 15.3856C113.116 16.6133 112.614 18.1121 112.614 19.9058C112.614 21.851 113.212 23.4933 114.4 24.8405C115.587 26.1878 117.277 26.8575 119.454 26.8575C120.729 26.8575 122.316 26.5705 124.205 25.9965" fill="#003B72"/>
<path d="M144.263 30.5172H138.539C138.858 26.8978 139.009 23.3742 139.009 19.9621C139.009 17.411 138.682 15.7449 138.045 14.9477C137.399 14.1505 136.339 13.7598 134.864 13.7598C133.301 13.7598 131.771 14.286 130.264 15.3224C130.264 21.4051 130.336 26.4673 130.479 30.5172H124.755C124.915 26.0847 124.994 20.7673 124.994 14.573C124.994 8.86496 124.771 4.12157 124.325 0.3428L130.415 0C130.2 4.60787 130.097 8.60986 130.097 12.0139H130.376C132.273 10.284 134.433 9.41504 136.873 9.41504C139.185 9.41504 140.994 9.93322 142.31 10.9776C143.625 12.0219 144.279 13.8635 144.279 16.4943C144.279 16.7653 144.263 17.3233 144.223 18.1604C144.191 18.9975 144.167 19.5476 144.167 19.8266C144.167 22.2182 144.199 25.7817 144.271 30.5172" fill="#003B72"/>
<path d="M152.92 30.2938C153.47 29.9829 153.813 30.0148 154.618 30.0626C156.245 30.1583 156.516 30.0626 157.058 30.7084C157.281 30.9715 157.233 31.4737 157.146 31.7368C157.002 32.1752 157.034 32.2948 156.691 33.2036C156.348 34.1204 156.03 34.7423 155.711 35.38C155.432 35.946 155.352 36.0975 154.77 36.8947C154.188 37.6919 153.997 37.7956 153.447 38.258C152.896 38.7124 152.665 38.8319 151.892 39.1747C151.119 39.5175 150.441 39.677 149.74 39.8045C149.03 39.9321 148.336 40.0357 147.531 39.9879C147.372 39.9799 147.22 39.7168 147.117 39.5415C146.846 39.087 146.718 38.824 146.63 38.0347C146.543 37.3172 146.351 36.6715 146.734 36.1772C147.013 35.8105 147.651 35.8584 148.057 35.7627C148.679 35.6112 149.484 35.2684 149.883 35.0691C151.398 34.1045 151.605 33.6341 152.291 32.1354C152.426 31.5614 152.33 32.1035 152.442 31.3701C152.562 30.6366 152.594 30.4931 152.928 30.3018" fill="#FEA92F"/>
</svg>
