<?xml version="1.0" encoding="UTF-8"?> <svg xmlns="http://www.w3.org/2000/svg" id="badge" viewBox="0 0 300 300"><title>cert_mark_SA</title><rect x="51.13" y="51.19" width="197.43" height="197.43" transform="translate(-62.11 149.86) rotate(-45)" fill="#eaeaea"></rect><rect x="47.97" y="48.07" width="203.87" height="203.87" stroke-width="8.15" fill="none" stroke="#264263" stroke-linecap="round" stroke-miterlimit="10" transform="translate(-62.16 149.93) rotate(-45)"></rect><polyline points="222.29 111.67 222.29 111.67 221.82 111.67 184.22 73.56 144.24 111.67 138.62 111.67 162.52 88.56 160.08 83.74 132.06 111.67 128.25 111.67 158.84 81.62 157.01 77.84 121.58 111.67 115.68 111.67 135.15 92.63 132.64 87.52 109.09 111.67 105.42 111.67 131.4 85.4 129.57 81.62 98.74 111.67 93.44 111.67 110.38 94.24 108.1 89.54 86.85 111.67 83.16 111.67 106.86 87.42 105.03 83.64 76.47 111.67 61.28 111.67" fill="#264362"></polyline><path d="M20.75,149.94l37.56-38.45H240.78l38,38-34.66,34.59L55,184.17S21.66,150.86,20.75,149.94Z" fill="#264263"></path><polygon points="60.71 189.85 238.73 189.78 149.87 279.15 60.71 189.85" fill="#f7ba4e"></polygon><path d="M136.87,136.18a10,10,0,0,0-3.74-2.9,10.61,10.61,0,0,0-4.45-1.07,13.32,13.32,0,0,0-2.25.19,5.79,5.79,0,0,0-2.05.75,5.1,5.1,0,0,0-1.53,1.43,3.86,3.86,0,0,0-.62,2.25,3.66,3.66,0,0,0,.49,1.95,4.38,4.38,0,0,0,1.43,1.37,12.44,12.44,0,0,0,2.25,1.07c.87.33,1.84.66,2.93,1,1.56.52,3.18,1.1,4.88,1.72a18.39,18.39,0,0,1,4.62,2.51,13.38,13.38,0,0,1,3.45,3.87,11.16,11.16,0,0,1,1.36,5.76,15.13,15.13,0,0,1-1.46,6.87,13.74,13.74,0,0,1-3.94,4.78,17,17,0,0,1-5.66,2.8,24.12,24.12,0,0,1-6.57.91,27.15,27.15,0,0,1-9.57-1.73,20.23,20.23,0,0,1-7.68-4.91l7.29-7.42a13.37,13.37,0,0,0,4.46,3.48,12,12,0,0,0,5.5,1.4,10.63,10.63,0,0,0,2.4-.26,5.82,5.82,0,0,0,2.05-.84,4.09,4.09,0,0,0,1.4-1.57,4.87,4.87,0,0,0,.52-2.34,3.66,3.66,0,0,0-.65-2.21,6.3,6.3,0,0,0-1.85-1.66,15.29,15.29,0,0,0-3-1.37c-1.2-.41-2.55-.85-4.07-1.33a39.21,39.21,0,0,1-4.33-1.69,14.34,14.34,0,0,1-3.77-2.51,11.45,11.45,0,0,1-2.67-3.71,12.59,12.59,0,0,1-1-5.3,13,13,0,0,1,1.56-6.57,13.59,13.59,0,0,1,4.1-4.49,17.55,17.55,0,0,1,5.73-2.57,26,26,0,0,1,6.44-.82,23.79,23.79,0,0,1,8,1.44,20.56,20.56,0,0,1,7.13,4.22Z" fill="#fff"></path><path d="M180.6,170.28,177,161.23H159.19l-3.38,9.05h-12.1L163,124.2h10.81L193,170.28ZM168.24,136.5l-5.86,15.82H174Z" fill="#fff"></path><path d="M159.42,250.42a9.81,9.81,0,0,1-.88,4.33,8.94,8.94,0,0,1-2.37,3,10.39,10.39,0,0,1-3.37,1.79,13.1,13.1,0,0,1-3.89.59,12.68,12.68,0,0,1-3.52-.48,11.19,11.19,0,0,1-3-1.36,9,9,0,0,1-2.35-2.18,8.64,8.64,0,0,1-1.45-2.91l5.89-1.81a4.63,4.63,0,0,0,1.6,2.35,4.63,4.63,0,0,0,5.66-.07,3.63,3.63,0,0,0,1.21-3,3.69,3.69,0,0,0-.5-2,3.79,3.79,0,0,0-1.29-1.29,5.12,5.12,0,0,0-1.79-.67,10.36,10.36,0,0,0-2-.2,21.67,21.67,0,0,0-6.66,1.2l.66-15.6H158v5.55h-11l-.23,4.31a8.78,8.78,0,0,1,1.37-.21c.5,0,1-.06,1.36-.06a13.32,13.32,0,0,1,3.85.54,8.63,8.63,0,0,1,3.14,1.64,7.71,7.71,0,0,1,2.1,2.71A8.75,8.75,0,0,1,159.42,250.42Z" fill="#264263"></path><path d="M122.15,205.76a5.85,5.85,0,0,0-2.21-1.71,6.19,6.19,0,0,0-2.64-.64,7.56,7.56,0,0,0-1.33.12,3.25,3.25,0,0,0-1.21.44,3.17,3.17,0,0,0-.91.84,2.29,2.29,0,0,0-.36,1.33,2.08,2.08,0,0,0,.29,1.16,2.52,2.52,0,0,0,.84.81,7.86,7.86,0,0,0,1.33.63c.51.19,1.09.39,1.73.6.93.31,1.89.65,2.89,1a11.13,11.13,0,0,1,2.74,1.48,7.87,7.87,0,0,1,2,2.29,6.7,6.7,0,0,1,.8,3.41,8.87,8.87,0,0,1-.86,4.06,8.17,8.17,0,0,1-2.33,2.83,9.92,9.92,0,0,1-3.35,1.66,14.44,14.44,0,0,1-3.89.54,16.07,16.07,0,0,1-5.66-1,11.79,11.79,0,0,1-4.54-2.9l4.31-4.39a8,8,0,0,0,2.64,2.06,7.16,7.16,0,0,0,3.25.83,6.06,6.06,0,0,0,1.42-.16,3.52,3.52,0,0,0,1.22-.5,2.63,2.63,0,0,0,.83-.92,3,3,0,0,0,.3-1.39,2.25,2.25,0,0,0-.38-1.31,3.81,3.81,0,0,0-1.1-1,9.24,9.24,0,0,0-1.77-.81l-2.41-.79a22.23,22.23,0,0,1-2.56-1,8.66,8.66,0,0,1-2.23-1.48,6.91,6.91,0,0,1-1.58-2.19,7.43,7.43,0,0,1-.59-3.14,7.67,7.67,0,0,1,.92-3.89,8.05,8.05,0,0,1,2.43-2.66,10.49,10.49,0,0,1,3.38-1.52,15.42,15.42,0,0,1,3.81-.48,14,14,0,0,1,4.72.85,12.21,12.21,0,0,1,4.22,2.5Z" fill="#264263"></path><path d="M147.44,225.93l-2.11-5.35H134.78l-2,5.35h-7.17l11.44-27.26h6.39l11.32,27.26Zm-7.31-20-3.47,9.36h6.86Z" fill="#264263"></path><path d="M162.77,204.3v5.62h10.54v5.43H162.77v10.58h-6.51V198.67H174.2v5.63Z" fill="#264263"></path><path d="M195.57,216.58v.77c0,.25,0,.5,0,.73h-13.9a3.32,3.32,0,0,0,.48,1.46,4.18,4.18,0,0,0,1,1.14,5.14,5.14,0,0,0,3.06,1,5.33,5.33,0,0,0,2.54-.56,4.9,4.9,0,0,0,1.7-1.45l4.39,2.78a8.91,8.91,0,0,1-3.57,3,11.85,11.85,0,0,1-5.14,1.06,12.3,12.3,0,0,1-4.08-.68,9.86,9.86,0,0,1-3.37-2,9.22,9.22,0,0,1-2.27-3.18,10.62,10.62,0,0,1-.82-4.31,10.77,10.77,0,0,1,.8-4.25,9.45,9.45,0,0,1,5.47-5.29,11.16,11.16,0,0,1,4.08-.74,10.24,10.24,0,0,1,3.89.72,8.41,8.41,0,0,1,3,2.06,9.24,9.24,0,0,1,2,3.27A12.44,12.44,0,0,1,195.57,216.58Zm-5.82-2.43a3.78,3.78,0,0,0-.94-2.58,3.56,3.56,0,0,0-2.83-1.08,4.79,4.79,0,0,0-1.69.29,4.49,4.49,0,0,0-1.35.79,3.89,3.89,0,0,0-.92,1.18,3.34,3.34,0,0,0-.39,1.4Z" fill="#264263"></path><path d="M194.24,205.79a3.87,3.87,0,0,1,.31-1.55,3.93,3.93,0,0,1,.86-1.25,4.06,4.06,0,0,1,1.26-.85,4,4,0,0,1,3.09,0A4.06,4.06,0,0,1,201,203a3.93,3.93,0,0,1,.86,1.25,3.87,3.87,0,0,1,.31,1.55,3.77,3.77,0,0,1-.31,1.53,3.95,3.95,0,0,1-2.12,2.08,4,4,0,0,1-3.09,0,3.95,3.95,0,0,1-2.12-2.08A3.77,3.77,0,0,1,194.24,205.79Zm.63,0a3.17,3.17,0,0,0,.26,1.29,3.51,3.51,0,0,0,.71,1.07,3.26,3.26,0,0,0,1.07.72,3.41,3.41,0,0,0,2.61,0,3.26,3.26,0,0,0,1.07-.72,3.51,3.51,0,0,0,.71-1.07,3.38,3.38,0,0,0,0-2.6,3.24,3.24,0,0,0-1.78-1.78,3.41,3.41,0,0,0-2.61,0,3.24,3.24,0,0,0-1.78,1.78A3.19,3.19,0,0,0,194.87,205.79Zm1.79-2.25h1.57a2.48,2.48,0,0,1,.61.07,1.48,1.48,0,0,1,.53.22,1.21,1.21,0,0,1,.38.4,1.28,1.28,0,0,1,.14.61,1.13,1.13,0,0,1-.28.8,1.45,1.45,0,0,1-.75.41l1.2,1.95h-1L198,206.13h-.57V208h-.81Zm1.45,2a1.65,1.65,0,0,0,.66-.13.53.53,0,0,0,.32-.53.48.48,0,0,0-.29-.49,1.53,1.53,0,0,0-.6-.12h-.73v1.27Z" fill="#264263"></path></svg> 