<svg id="Layer_1" data-name="Layer 1" xmlns="http://www.w3.org/2000/svg" viewBox="0 0 498 495"><defs><style>.cls-1{fill:none;stroke:#0cb5c9;stroke-miterlimit:10;stroke-width:7px;}.cls-2{fill:#e94335;}.cls-3{fill:#4284f3;}.cls-4{fill:#34a753;}.cls-5{fill:#fabb05;}.cls-6{fill:#252f3e;}.cls-7{fill:#ff9800;}.cls-8{fill:#0088d5;}</style></defs><title>Ikonki nowe</title><path class="cls-1" d="M260,60.59a67.7,67.7,0,0,1,80.38,52.11"/><path class="cls-1" d="M344.05,343.82a67.7,67.7,0,0,1-69.76,65.65"/><path class="cls-1" d="M66.72,303.52a67.7,67.7,0,0,1,2.9-95.75"/><g id="g710"><path id="path702" class="cls-2" d="M192,320.53h4.67L210,307.21l.66-5.66a59.89,59.89,0,0,0-97.43,29.22,7.16,7.16,0,0,1,4.68-.27l26.64-4.4s1.35-2.25,2.06-2.11a33.24,33.24,0,0,1,45.49-3.46Z"/><path id="path704" class="cls-3" d="M229,330.77a59.83,59.83,0,0,0-18.09-29.16L192.18,320.3a33.28,33.28,0,0,1,12.2,26.37V350a16.65,16.65,0,0,1,0,33.29H171.09l-3.32,3.37v20l3.32,3.32h33.29A43.3,43.3,0,0,0,229,330.77Z"/><path id="path706" class="cls-4" d="M137.76,409.72h33.29V383.08H137.76a16.6,16.6,0,0,1-6.87-1.5L126.21,383,112.8,396.35,111.63,401a43,43,0,0,0,26.13,8.69Z"/><path id="path708" class="cls-5" d="M137.76,323.29a43.29,43.29,0,0,0-26.13,77.6l19.3-19.3a16.64,16.64,0,1,1,22-22l19.3-19.3A43.2,43.2,0,0,0,137.76,323.29Z"/></g><path class="cls-6" d="M341.37,224.71a14.69,14.69,0,0,0,.54,4.32,25.82,25.82,0,0,0,1.55,3.49,2.15,2.15,0,0,1,.34,1.12,1.93,1.93,0,0,1-.92,1.46l-3.06,2a2.35,2.35,0,0,1-1.26.43,2.23,2.23,0,0,1-1.46-.68,14.74,14.74,0,0,1-1.75-2.28c-.48-.82-1-1.75-1.5-2.86a17.94,17.94,0,0,1-14.28,6.7c-4.08,0-7.33-1.17-9.71-3.5a13.71,13.71,0,0,1,.82-19.32c3-2.53,6.9-3.79,11.9-3.79a39,39,0,0,1,5.15.39c1.79.24,3.64.63,5.58,1.07v-3.55c0-3.69-.77-6.26-2.28-7.77s-4.18-2.23-7.91-2.23a22,22,0,0,0-5.25.63,38.9,38.9,0,0,0-5.24,1.65,12.88,12.88,0,0,1-1.7.63,2.88,2.88,0,0,1-.78.15c-.68,0-1-.49-1-1.51v-2.38a3.11,3.11,0,0,1,.34-1.7,3.61,3.61,0,0,1,1.36-1A28,28,0,0,1,317,194a29.46,29.46,0,0,1,7.57-.92c5.78,0,10,1.31,12.73,3.93s4,6.6,4,11.95v15.73Zm-19.71,7.38a15.56,15.56,0,0,0,5-.88,10.81,10.81,0,0,0,4.61-3.1,7.74,7.74,0,0,0,1.65-3.11,17,17,0,0,0,.49-4.23v-2a39.45,39.45,0,0,0-4.47-.82,37.36,37.36,0,0,0-4.56-.29c-3.26,0-5.63.63-7.24,1.94a6.94,6.94,0,0,0,4.52,12.53Zm39,5.24a2.74,2.74,0,0,1-1.85-.48,4.09,4.09,0,0,1-1-1.9l-11.41-37.53a8.41,8.41,0,0,1-.43-1.94,1.07,1.07,0,0,1,1.16-1.22h4.76a2.68,2.68,0,0,1,1.89.49,4,4,0,0,1,1,1.89l8.15,32.15,7.58-32.15a2.43,2.43,0,0,1,2.86-2.38h3.89a2.92,2.92,0,0,1,1.94.49,3.23,3.23,0,0,1,.92,1.89l7.67,32.53,8.4-32.53a4.22,4.22,0,0,1,1-1.89,3.13,3.13,0,0,1,1.89-.49h4.51a1.08,1.08,0,0,1,1.22,1.22,4.65,4.65,0,0,1-.1.77,6.73,6.73,0,0,1-.34,1.22L392.6,235a3.69,3.69,0,0,1-1,1.89,3.05,3.05,0,0,1-1.85.49h-4.17a2.9,2.9,0,0,1-1.94-.49,3.43,3.43,0,0,1-.93-1.94l-7.52-31.32-7.48,31.27a3.75,3.75,0,0,1-.92,1.95,3,3,0,0,1-1.94.48ZM423,238.64a32.19,32.19,0,0,1-7.47-.87,22.06,22.06,0,0,1-5.59-1.94,3.56,3.56,0,0,1-1.5-1.36,3.36,3.36,0,0,1-.29-1.36v-2.48c0-1,.38-1.5,1.11-1.5a2.7,2.7,0,0,1,.88.14c.29.1.73.29,1.21.49a26.45,26.45,0,0,0,5.34,1.7,29.06,29.06,0,0,0,5.78.58c3.06,0,5.44-.53,7.09-1.6a5.24,5.24,0,0,0,2.52-4.62,4.68,4.68,0,0,0-1.31-3.39,12.07,12.07,0,0,0-4.9-2.53l-7-2.18c-3.55-1.12-6.17-2.77-7.77-5a11.56,11.56,0,0,1-2.43-7,10.86,10.86,0,0,1,1.31-5.39,12.58,12.58,0,0,1,3.5-4,15.34,15.34,0,0,1,5-2.52,20.9,20.9,0,0,1,6.12-.83,25.41,25.41,0,0,1,3.25.19c1.12.15,2.14.34,3.16.54s1.89.48,2.76.78a10.32,10.32,0,0,1,2,.87,4.29,4.29,0,0,1,1.46,1.21,2.65,2.65,0,0,1,.44,1.61v2.28c0,1-.39,1.55-1.12,1.55a5,5,0,0,1-1.85-.58,22.2,22.2,0,0,0-9.32-1.89,12.58,12.58,0,0,0-6.46,1.35,4.72,4.72,0,0,0-2.28,4.33,4.57,4.57,0,0,0,1.46,3.44,14.32,14.32,0,0,0,5.34,2.67l6.89,2.19c3.5,1.12,6,2.67,7.53,4.66a11,11,0,0,1,2.23,6.8,12.4,12.4,0,0,1-1.26,5.63,13,13,0,0,1-3.54,4.27,15.55,15.55,0,0,1-5.39,2.72A23.13,23.13,0,0,1,423,238.64Z"/><path class="cls-7" d="M432.22,262.24c-16,11.8-39.18,18.06-59.14,18.06a107,107,0,0,1-72.2-27.53c-1.51-1.36-.15-3.2,1.65-2.13a145.66,145.66,0,0,0,72.25,19.18,144.11,144.11,0,0,0,55.11-11.27C432.56,257.34,434.84,260.3,432.22,262.24Z"/><path class="cls-7" d="M438.87,254.67c-2-2.63-13.5-1.27-18.69-.63-1.55.19-1.8-1.17-.39-2.19,9.13-6.41,24.13-4.56,25.88-2.43s-.48,17.19-9,24.38c-1.31,1.11-2.57.53-2-.92C436.59,268.07,440.91,257.24,438.87,254.67Z"/><path id="path21" class="cls-8" d="M155.83,164.73,191,158.51l.33-.07-18.1-21.53c-10-11.84-18.09-21.57-18.09-21.62s18.68-51.57,18.79-51.75,12.75,21.89,30.82,53.22l31,53.73.24.42H121Zm-69-6.56s8.52-14.83,19-32.89L124.7,92.44l22.09-18.53c12.14-10.2,22.11-18.55,22.15-18.56a4.19,4.19,0,0,1-.35.89l-24,51.43-23.55,50.51-17.13,0C94.51,158.22,86.81,158.2,86.81,158.17Z"/><circle class="cls-1" cx="171.5" cy="357.5" r="102"/><circle class="cls-1" cx="154.5" cy="126.5" r="102"/><circle class="cls-1" cx="372.5" cy="224.5" r="102"/></svg>