<?xml version="1.0" encoding="UTF-8" standalone="no"?>
<svg xmlns="http://www.w3.org/2000/svg" xmlns:xlink="http://www.w3.org/1999/xlink" width="16" height="16">
  <defs>
    <path id="h" fill="none" stroke="#183866" d="M8 8.5c-4.1421358 0-7.5.8954304-7.5 2v3c0 1.10457 3.3578642 2 7.5 2 4.142136 0 7.5-.89543 7.5-2v-3c0-1.1045696-3.357864-2-7.5-2z"/>
    <path id="S" fill="none" stroke="#193965" stroke-width=".37719545" d="M8 8.5c-4.1421358 0-7.5.8954304-7.5 2v3c0 1.10457 3.3578642 2 7.5 2 4.142136 0 7.5-.89543 7.5-2v-3c0-1.1045696-3.357864-2-7.5-2z"/>
  </defs>
  <defs>
    <linearGradient id="d">
      <stop offset="0" stop-color="#fff" stop-opacity=".80000001"/>
      <stop offset="1" stop-color="#fff" stop-opacity="0"/>
    </linearGradient>
    <linearGradient id="b">
      <stop offset="0" stop-color="#fff" stop-opacity=".60000002"/>
      <stop offset="1" stop-color="#fff" stop-opacity=".20784314"/>
    </linearGradient>
    <linearGradient id="c">
      <stop offset="0" stop-color="#cbdbed"/>
      <stop offset="1" stop-color="#204a87"/>
    </linearGradient>
    <linearGradient id="a">
      <stop offset="0" stop-color="#729fcf"/>
      <stop offset="1" stop-color="#204a87"/>
    </linearGradient>
    <linearGradient xlink:href="#a" id="e" x1=".5" x2="15.5" y1="12" y2="12" gradientUnits="userSpaceOnUse"/>
    <linearGradient xlink:href="#b" id="g" x1="1" x2="15" y1="22" y2="22" gradientUnits="userSpaceOnUse"/>
    <linearGradient xlink:href="#a" id="i" x1=".5" x2="15.5" y1="12" y2="12" gradientUnits="userSpaceOnUse"/>
    <linearGradient xlink:href="#c" id="j" x1=".49977225" x2="15.500228" y1="12.984375" y2="12.984375" gradientUnits="userSpaceOnUse"/>
    <linearGradient xlink:href="#b" id="k" x1="1" x2="15" y1="22" y2="22" gradientUnits="userSpaceOnUse"/>
    <linearGradient xlink:href="#a" id="l" x1=".5" x2="15.5" y1="12" y2="12" gradientUnits="userSpaceOnUse"/>
    <linearGradient xlink:href="#c" id="m" x1=".49977225" x2="15.500228" y1="12.984375" y2="12.984375" gradientUnits="userSpaceOnUse"/>
    <linearGradient xlink:href="#b" id="n" x1="1" x2="15" y1="22" y2="22" gradientUnits="userSpaceOnUse"/>
    <linearGradient xlink:href="#c" id="f" x1=".49977225" x2="15.500228" y1="12.984375" y2="12.984375" gradientUnits="userSpaceOnUse"/>
    <linearGradient xlink:href="#a" id="s" x1=".5" x2="15.5" y1="12" y2="12" gradientUnits="userSpaceOnUse"/>
    <linearGradient xlink:href="#c" id="t" x1="-29.5" x2="-8.5" y1="25.890625" y2="25.890625" gradientUnits="userSpaceOnUse"/>
    <linearGradient xlink:href="#b" id="u" x1="-28.96875" x2="-9.03125" y1="30" y2="30" gradientUnits="userSpaceOnUse"/>
    <linearGradient xlink:href="#d" id="v" x1="-28" x2="-19" y1="20.96875" y2="21" gradientUnits="userSpaceOnUse"/>
    <linearGradient xlink:href="#a" id="w" x1=".5" x2="15.5" y1="12" y2="12" gradientUnits="userSpaceOnUse"/>
    <linearGradient xlink:href="#c" id="x" x1="-29.5" x2="-8.5" y1="25.890625" y2="25.890625" gradientUnits="userSpaceOnUse"/>
    <linearGradient xlink:href="#d" id="z" x1="-28" x2="-19" y1="20.96875" y2="21" gradientUnits="userSpaceOnUse"/>
    <linearGradient xlink:href="#a" id="o" x1=".5" x2="15.5" y1="12" y2="12" gradientUnits="userSpaceOnUse"/>
    <linearGradient xlink:href="#c" id="p" x1="-29.5" x2="-8.5" y1="25.890625" y2="25.890625" gradientUnits="userSpaceOnUse"/>
    <linearGradient xlink:href="#b" id="q" x1="-28.96875" x2="-9.03125" y1="30" y2="30" gradientUnits="userSpaceOnUse"/>
    <linearGradient xlink:href="#d" id="r" x1="-28" x2="-19" y1="20.96875" y2="21" gradientUnits="userSpaceOnUse"/>
    <linearGradient xlink:href="#b" id="y" x1="-28.96875" x2="-9.03125" y1="30" y2="30" gradientUnits="userSpaceOnUse"/>
    <linearGradient xlink:href="#a" id="F" x1=".5" x2="15.5" y1="12" y2="12" gradientUnits="userSpaceOnUse"/>
    <linearGradient xlink:href="#c" id="G" x1=".5" x2="15.5" y1="12" y2="12" gradientTransform="matrix(1.93333 0 0 1.85714 -69.466666 6.7143)" gradientUnits="userSpaceOnUse"/>
    <linearGradient xlink:href="#b" id="H" x1="-68.03125" x2="-39.96875" y1="24" y2="24" gradientUnits="userSpaceOnUse"/>
    <linearGradient xlink:href="#d" id="I" x1="-69" x2="-54" y1="29" y2="29" gradientUnits="userSpaceOnUse"/>
    <linearGradient xlink:href="#a" id="J" x1=".5" x2="15.5" y1="12" y2="12" gradientUnits="userSpaceOnUse"/>
    <linearGradient xlink:href="#c" id="K" x1=".5" x2="15.5" y1="12" y2="12" gradientTransform="matrix(1.93333 0 0 1.85714 -69.466666 6.7143)" gradientUnits="userSpaceOnUse"/>
    <linearGradient xlink:href="#b" id="L" x1="-68.03125" x2="-39.96875" y1="24" y2="24" gradientUnits="userSpaceOnUse"/>
    <linearGradient xlink:href="#d" id="M" x1="-69" x2="-54" y1="29" y2="29" gradientUnits="userSpaceOnUse"/>
    <linearGradient xlink:href="#a" id="B" x1=".5" x2="15.5" y1="12" y2="12" gradientUnits="userSpaceOnUse"/>
    <linearGradient xlink:href="#c" id="C" x1=".5" x2="15.5" y1="12" y2="12" gradientTransform="matrix(1.93333 0 0 1.85714 -69.466666 6.7143)" gradientUnits="userSpaceOnUse"/>
    <linearGradient xlink:href="#b" id="D" x1="-68.03125" x2="-39.96875" y1="24" y2="24" gradientUnits="userSpaceOnUse"/>
    <linearGradient xlink:href="#d" id="E" x1="-69" x2="-54" y1="29" y2="29" gradientUnits="userSpaceOnUse"/>
    <linearGradient xlink:href="#a" id="P" x1=".5" x2="15.5" y1="12" y2="12" gradientUnits="userSpaceOnUse"/>
    <linearGradient xlink:href="#c" id="Q" x1="-122.5" x2="-81.5" y1="27" y2="27" gradientUnits="userSpaceOnUse"/>
    <linearGradient xlink:href="#b" id="R" x1="-122" x2="-82" y1="23.5" y2="23.5" gradientUnits="userSpaceOnUse"/>
    <linearGradient xlink:href="#d" id="T" x1="-121" x2="-102" y1="30" y2="30" gradientUnits="userSpaceOnUse"/>
    <linearGradient xlink:href="#a" id="U" x1=".5" x2="15.5" y1="12" y2="12" gradientUnits="userSpaceOnUse"/>
    <linearGradient xlink:href="#c" id="V" x1="-122.5" x2="-81.5" y1="27" y2="27" gradientUnits="userSpaceOnUse"/>
    <linearGradient xlink:href="#b" id="W" x1="-122" x2="-82" y1="23.5" y2="23.5" gradientUnits="userSpaceOnUse"/>
    <linearGradient xlink:href="#d" id="X" x1="-121" x2="-102" y1="30" y2="30" gradientUnits="userSpaceOnUse"/>
    <linearGradient xlink:href="#a" id="Y" x1=".5" x2="15.5" y1="12" y2="12" gradientUnits="userSpaceOnUse"/>
    <linearGradient xlink:href="#c" id="Z" x1="-122.5" x2="-81.5" y1="27" y2="27" gradientUnits="userSpaceOnUse"/>
    <linearGradient xlink:href="#b" id="aa" x1="-122" x2="-82" y1="23.5" y2="23.5" gradientUnits="userSpaceOnUse"/>
    <linearGradient xlink:href="#d" id="ab" x1="-121" x2="-102" y1="30" y2="30" gradientUnits="userSpaceOnUse"/>
    <filter id="A" width="1.0631228" height="1.3366547" x="-.03156138" y="-.16832734">
      <feGaussianBlur stdDeviation=".42081834"/>
    </filter>
    <filter id="O" width="1.1309307" height="1.6873863" x="-.06546537" y="-.34369317">
      <feGaussianBlur stdDeviation="1.1456439"/>
    </filter>
    <clipPath id="N" clipPathUnits="userSpaceOnUse">
      <path fill="#a40000" d="M-126-6h48v22h-48z" transform="matrix(.95455 0 0 .89256 -4.6363639 -1.3719273)"/>
    </clipPath>
  </defs>
  <path fill="url(#e)" d="M8 8.5c-4.1421358 0-7.5.8954304-7.5 2v3c0 1.10457 3.3578642 2 7.5 2 4.142136 0 7.5-.89543 7.5-2v-3c0-1.1045696-3.357864-2-7.5-2z"/>
  <path fill="url(#f)" d="M.5 10.46875c-.00051245.0096 0 .02158 0 .03125v3c0 1.10457 3.3578642 2 7.5 2 4.142136 0 7.5-.89543 7.5-2v-3c0-.0097.000512-.02162 0-.03125-.09722.08323-.200241.147974-.3125.21875-.449036.283104-1.040794.529628-1.75.71875C12.019088 11.784493 10.107097 12 8 12c-2.1070972 0-4.0190875-.215507-5.4375-.59375-.7092062-.189122-1.3009638-.435646-1.75-.71875-.11225905-.070776-.21527955-.135517-.3125-.21875z"/>
  <path fill="url(#g)" d="M8 19c-2.0350386 0-3.8914464.216886-5.1875.5625-.6480268.172807-1.1587449.398301-1.46875.59375C1.0337449 20.351699 1 20.477189 1 20.5v3c0 .02281.033745.148301.34375.34375.3100051.195449.8207232.420943 1.46875.59375C4.1085536 24.783114 5.9649614 25 8 25c2.035039 0 3.891446-.216886 5.1875-.5625.648027-.172807 1.158745-.398301 1.46875-.59375C14.96626 23.648301 15 23.52281 15 23.5v-3c0-.02281-.03374-.148301-.34375-.34375-.310005-.195449-.820723-.420943-1.46875-.59375C11.891446 19.216886 10.035039 19 8 19zm0 1c1.96298 0 3.732555.218265 4.90625.53125.524331.139822.891697.295302 1.09375.40625v2.125c-.202053.110948-.569419.266428-1.09375.40625C11.732555 23.781735 9.96298 24 8 24c-1.9629799 0-3.7325554-.218265-4.90625-.53125-.5243309-.139822-.8916967-.295302-1.09375-.40625v-2.125c.2020534-.110948.5694191-.266428 1.09375-.40625C4.2674447 20.218265 6.0370201 20 8 20z" color="#000" enable-background="accumulate" font-family="Bitstream Vera Sans" font-weight="400" overflow="visible" style="text-indent:0;text-align:start;line-height:normal;text-transform:none;block-progression:tb;marker:none;-inkscape-font-specification:Bitstream Vera Sans" transform="translate(0 -10)"/>
  <use xlink:href="#h"/>
  <path fill="url(#i)" d="M8 8.5c-4.1421358 0-7.5.8954304-7.5 2v3c0 1.10457 3.3578642 2 7.5 2 4.142136 0 7.5-.89543 7.5-2v-3c0-1.1045696-3.357864-2-7.5-2z" transform="translate(0 -4)"/>
  <path fill="url(#j)" d="M.5 10.46875c-.00051245.0096 0 .02158 0 .03125v3c0 1.10457 3.3578642 2 7.5 2 4.142136 0 7.5-.89543 7.5-2v-3c0-.0097.000512-.02162 0-.03125-.09722.08323-.200241.147974-.3125.21875-.449036.283104-1.040794.529628-1.75.71875C12.019088 11.784493 10.107097 12 8 12c-2.1070972 0-4.0190875-.215507-5.4375-.59375-.7092062-.189122-1.3009638-.435646-1.75-.71875-.11225905-.070776-.21527955-.135517-.3125-.21875z" transform="translate(0 -4)"/>
  <path fill="url(#k)" d="M8 19c-2.0350386 0-3.8914464.216886-5.1875.5625-.6480268.172807-1.1587449.398301-1.46875.59375C1.0337449 20.351699 1 20.477189 1 20.5v3c0 .02281.033745.148301.34375.34375.3100051.195449.8207232.420943 1.46875.59375C4.1085536 24.783114 5.9649614 25 8 25c2.035039 0 3.891446-.216886 5.1875-.5625.648027-.172807 1.158745-.398301 1.46875-.59375C14.96626 23.648301 15 23.52281 15 23.5v-3c0-.02281-.03374-.148301-.34375-.34375-.310005-.195449-.820723-.420943-1.46875-.59375C11.891446 19.216886 10.035039 19 8 19zm0 1c1.96298 0 3.732555.218265 4.90625.53125.524331.139822.891697.295302 1.09375.40625v2.125c-.202053.110948-.569419.266428-1.09375.40625C11.732555 23.781735 9.96298 24 8 24c-1.9629799 0-3.7325554-.218265-4.90625-.53125-.5243309-.139822-.8916967-.295302-1.09375-.40625v-2.125c.2020534-.110948.5694191-.266428 1.09375-.40625C4.2674447 20.218265 6.0370201 20 8 20z" color="#000" enable-background="accumulate" font-family="Bitstream Vera Sans" font-weight="400" overflow="visible" style="text-indent:0;text-align:start;line-height:normal;text-transform:none;block-progression:tb;marker:none;-inkscape-font-specification:Bitstream Vera Sans" transform="translate(0 -14)"/>
  <path fill="none" stroke="#183866" d="M8 4.5c-4.1421358 0-7.5.8954304-7.5 2v3c0 1.10457 3.3578642 2 7.5 2 4.142136 0 7.5-.89543 7.5-2v-3c0-1.1045696-3.357864-2-7.5-2z"/>
  <path fill="url(#l)" d="M8 8.5c-4.1421358 0-7.5.8954304-7.5 2v3c0 1.10457 3.3578642 2 7.5 2 4.142136 0 7.5-.89543 7.5-2v-3c0-1.1045696-3.357864-2-7.5-2z" transform="translate(0 -8)"/>
  <path fill="url(#m)" d="M.5 10.46875c-.00051245.0096 0 .02158 0 .03125v3c0 1.10457 3.3578642 2 7.5 2 4.142136 0 7.5-.89543 7.5-2v-3c0-.0097.000512-.02162 0-.03125-.09722.08323-.200241.147974-.3125.21875-.449036.283104-1.040794.529628-1.75.71875C12.019088 11.784493 10.107097 12 8 12c-2.1070972 0-4.0190875-.215507-5.4375-.59375-.7092062-.189122-1.3009638-.435646-1.75-.71875-.11225905-.070776-.21527955-.135517-.3125-.21875z" transform="translate(0 -8)"/>
  <path fill="none" stroke="#183866" d="M8 .5C3.8578642.5.5 1.3954304.5 2.5v3c0 1.10457 3.3578642 2 7.5 2 4.142136 0 7.5-.89543 7.5-2v-3c0-1.1045696-3.357864-2-7.5-2z"/>
  <path fill="url(#n)" d="M8 19c-2.0350386 0-3.8914464.216886-5.1875.5625-.6480268.172807-1.1587449.398301-1.46875.59375C1.0337449 20.351699 1 20.477189 1 20.5v3c0 .02281.033745.148301.34375.34375.3100051.195449.8207232.420943 1.46875.59375C4.1085536 24.783114 5.9649614 25 8 25c2.035039 0 3.891446-.216886 5.1875-.5625.648027-.172807 1.158745-.398301 1.46875-.59375C14.96626 23.648301 15 23.52281 15 23.5v-3c0-.02281-.03374-.148301-.34375-.34375-.310005-.195449-.820723-.420943-1.46875-.59375C11.891446 19.216886 10.035039 19 8 19zm0 1c1.96298 0 3.732555.218265 4.90625.53125.524331.139822.891697.295302 1.09375.40625v2.125c-.202053.110948-.569419.266428-1.09375.40625C11.732555 23.781735 9.96298 24 8 24c-1.9629799 0-3.7325554-.218265-4.90625-.53125-.5243309-.139822-.8916967-.295302-1.09375-.40625v-2.125c.2020534-.110948.5694191-.266428 1.09375-.40625C4.2674447 20.218265 6.0370201 20 8 20z" color="#000" enable-background="accumulate" font-family="Bitstream Vera Sans" font-weight="400" overflow="visible" style="text-indent:0;text-align:start;line-height:normal;text-transform:none;block-progression:tb;marker:none;-inkscape-font-specification:Bitstream Vera Sans" transform="translate(0 -18)"/>
  <path fill="url(#o)" d="M8 8.5c-4.1421358 0-7.5.8954304-7.5 2v3c0 1.10457 3.3578642 2 7.5 2 4.142136 0 7.5-.89543 7.5-2v-3c0-1.1045696-3.357864-2-7.5-2z" transform="matrix(1.4 0 0 1.28571 -30.2 -4.4286)"/>
  <path fill="url(#p)" d="M-29 22.28125c-.327285.248738-.5.505854-.5.78125v3.875c0 1.420161 4.70101 2.5625 10.5 2.5625s10.5-1.142339 10.5-2.5625v-3.875c0-.275396-.1727155-.532512-.5-.78125-.026097.01581-.03593.04712-.0625.0625-.6038676.349642-1.393016.634515-2.375.875-1.963966.480972-4.625408.75-7.5625.75s-5.598533-.269028-7.5625-.75c-.981984-.240485-1.771132-.525358-2.375-.875-.02657-.01538-.0364-.04669-.0625-.0625z" transform="translate(0 -14)"/>
  <path fill="url(#q)" d="M-19 26c-2.861898 0-5.476214.269047-7.3125.71875-.918143.224851-1.63496.484359-2.09375.75-.45879.265641-.59375.481481-.59375.59375v3.875c0 .11227.13496.328109.59375.59375.45879.265641 1.175607.525149 2.09375.75C-24.476215 33.730953-21.861898 34-19 34s5.476214-.269047 7.3125-.71875c.918142-.224851 1.63496-.484359 2.09375-.75.458794-.265641.59375-.481481.59375-.59375v-3.875c0-.112269-.1349602-.328109-.59375-.59375-.45879-.265641-1.175608-.525149-2.09375-.75C-13.523786 26.269047-16.138102 26-19 26zm0 1c2.786706 0 5.291395.206566 7 .625.693891.111964 1.373243.439642 2 .71875v3.3125c-.584938.378756-1.344396.514305-2 .71875-1.708605.418433-4.213294.625-7 .625-2.786705 0-5.291396-.206567-7-.625-.693891-.111964-1.373243-.439642-2-.71875v-3.3125c.584938-.378756 1.344396-.514305 2-.71875 1.708604-.418434 4.213295-.625 7-.625z" color="#000" enable-background="accumulate" font-family="Bitstream Vera Sans" font-weight="400" overflow="visible" style="text-indent:0;text-align:start;line-height:normal;text-transform:none;block-progression:tb;marker:none;-inkscape-font-specification:Bitstream Vera Sans" transform="translate(0 -19)"/>
  <use xlink:href="#h" stroke-width=".74535596" transform="matrix(1.4 0 0 1.28571 -30.2 -4.4286)"/>
  <path fill="url(#r)" d="M-27.28125 20c-.253756.09009-.499398.201716-.71875.34375v.46875c.361797.129124.740766.241998 1.15625.34375 2.091648.51224 4.831465.78125 7.84375.78125 3.012285 0 5.752102-.26901 7.84375-.78125.415484-.101752.794453-.214626 1.15625-.34375v-.46875c-.243227-.108314-.493155-.236252-.75-.34375-.226976.068-.435191.15696-.6875.21875-1.963966.480972-4.625408.75-7.5625.75s-5.598533-.269028-7.5625-.75c-.262771-.06435-.483451-.147651-.71875-.21875z" color="#000" enable-background="accumulate" font-family="Bitstream Vera Sans" font-weight="400" overflow="visible" style="text-indent:0;text-align:start;line-height:normal;text-transform:none;block-progression:tb;marker:none;-inkscape-font-specification:Bitstream Vera Sans" transform="translate(0 -11)"/>
  <path fill="url(#s)" d="M8 8.5c-4.1421358 0-7.5.8954304-7.5 2v3c0 1.10457 3.3578642 2 7.5 2 4.142136 0 7.5-.89543 7.5-2v-3c0-1.1045696-3.357864-2-7.5-2z" transform="matrix(1.4 0 0 1.28571 -30.2 -10.4286)"/>
  <path fill="url(#t)" d="M-29 22.28125c-.327285.248738-.5.505854-.5.78125v3.875c0 1.420161 4.70101 2.5625 10.5 2.5625s10.5-1.142339 10.5-2.5625v-3.875c0-.275396-.1727155-.532512-.5-.78125-.026097.01581-.03593.04712-.0625.0625-.6038676.349642-1.393016.634515-2.375.875-1.963966.480972-4.625408.75-7.5625.75s-5.598533-.269028-7.5625-.75c-.981984-.240485-1.771132-.525358-2.375-.875-.02657-.01538-.0364-.04669-.0625-.0625z" transform="translate(0 -20)"/>
  <path fill="url(#u)" d="M-19 26c-2.861898 0-5.476214.269047-7.3125.71875-.918143.224851-1.63496.484359-2.09375.75-.45879.265641-.59375.481481-.59375.59375v3.875c0 .11227.13496.328109.59375.59375.45879.265641 1.175607.525149 2.09375.75C-24.476215 33.730953-21.861898 34-19 34s5.476214-.269047 7.3125-.71875c.918142-.224851 1.63496-.484359 2.09375-.75.458794-.265641.59375-.481481.59375-.59375v-3.875c0-.112269-.1349602-.328109-.59375-.59375-.45879-.265641-1.175608-.525149-2.09375-.75C-13.523786 26.269047-16.138102 26-19 26zm0 1c2.786706 0 5.291395.206566 7 .625.693891.111964 1.373243.439642 2 .71875v3.3125c-.584938.378756-1.344396.514305-2 .71875-1.708605.418433-4.213294.625-7 .625-2.786705 0-5.291396-.206567-7-.625-.693891-.111964-1.373243-.439642-2-.71875v-3.3125c.584938-.378756 1.344396-.514305 2-.71875 1.708604-.418434 4.213295-.625 7-.625z" color="#000" enable-background="accumulate" font-family="Bitstream Vera Sans" font-weight="400" overflow="visible" style="text-indent:0;text-align:start;line-height:normal;text-transform:none;block-progression:tb;marker:none;-inkscape-font-specification:Bitstream Vera Sans" transform="translate(0 -25)"/>
  <use xlink:href="#h" stroke-width=".74535596" transform="matrix(1.4 0 0 1.28571 -30.2 -10.4286)"/>
  <path fill="url(#v)" d="M-27.28125 20c-.253756.09009-.499398.201716-.71875.34375v.46875c.361797.129124.740766.241998 1.15625.34375 2.091648.51224 4.831465.78125 7.84375.78125 3.012285 0 5.752102-.26901 7.84375-.78125.415484-.101752.794453-.214626 1.15625-.34375v-.46875c-.243227-.108314-.493155-.236252-.75-.34375-.226976.068-.435191.15696-.6875.21875-1.963966.480972-4.625408.75-7.5625.75s-5.598533-.269028-7.5625-.75c-.262771-.06435-.483451-.147651-.71875-.21875z" color="#000" enable-background="accumulate" font-family="Bitstream Vera Sans" font-weight="400" overflow="visible" style="text-indent:0;text-align:start;line-height:normal;text-transform:none;block-progression:tb;marker:none;-inkscape-font-specification:Bitstream Vera Sans" transform="translate(0 -17)"/>
  <path fill="url(#w)" d="M8 8.5c-4.1421358 0-7.5.8954304-7.5 2v3c0 1.10457 3.3578642 2 7.5 2 4.142136 0 7.5-.89543 7.5-2v-3c0-1.1045696-3.357864-2-7.5-2z" transform="matrix(1.4 0 0 1.28571 -30.2 -16.4286)"/>
  <path fill="url(#x)" d="M-29 22.28125c-.327285.248738-.5.505854-.5.78125v3.875c0 1.420161 4.70101 2.5625 10.5 2.5625s10.5-1.142339 10.5-2.5625v-3.875c0-.275396-.1727155-.532512-.5-.78125-.026097.01581-.03593.04712-.0625.0625-.6038676.349642-1.393016.634515-2.375.875-1.963966.480972-4.625408.75-7.5625.75s-5.598533-.269028-7.5625-.75c-.981984-.240485-1.771132-.525358-2.375-.875-.02657-.01538-.0364-.04669-.0625-.0625z" transform="translate(0 -26)"/>
  <path fill="url(#y)" d="M-19 26c-2.861898 0-5.476214.269047-7.3125.71875-.918143.224851-1.63496.484359-2.09375.75-.45879.265641-.59375.481481-.59375.59375v3.875c0 .11227.13496.328109.59375.59375.45879.265641 1.175607.525149 2.09375.75C-24.476215 33.730953-21.861898 34-19 34s5.476214-.269047 7.3125-.71875c.918142-.224851 1.63496-.484359 2.09375-.75.458794-.265641.59375-.481481.59375-.59375v-3.875c0-.112269-.1349602-.328109-.59375-.59375-.45879-.265641-1.175608-.525149-2.09375-.75C-13.523786 26.269047-16.138102 26-19 26zm0 1c2.786706 0 5.291395.206566 7 .625.693891.111964 1.373243.439642 2 .71875v3.3125c-.584938.378756-1.344396.514305-2 .71875-1.708605.418433-4.213294.625-7 .625-2.786705 0-5.291396-.206567-7-.625-.693891-.111964-1.373243-.439642-2-.71875v-3.3125c.584938-.378756 1.344396-.514305 2-.71875 1.708604-.418434 4.213295-.625 7-.625z" color="#000" enable-background="accumulate" font-family="Bitstream Vera Sans" font-weight="400" overflow="visible" style="text-indent:0;text-align:start;line-height:normal;text-transform:none;block-progression:tb;marker:none;-inkscape-font-specification:Bitstream Vera Sans" transform="translate(0 -31)"/>
  <use xlink:href="#h" stroke-width=".74535596" transform="matrix(1.4 0 0 1.28571 -30.2 -16.4286)"/>
  <path fill="url(#z)" d="M-27.28125 20c-.253756.09009-.499398.201716-.71875.34375v.46875c.361797.129124.740766.241998 1.15625.34375 2.091648.51224 4.831465.78125 7.84375.78125 3.012285 0 5.752102-.26901 7.84375-.78125.415484-.101752.794453-.214626 1.15625-.34375v-.46875c-.243227-.108314-.493155-.236252-.75-.34375-.226976.068-.435191.15696-.6875.21875-1.963966.480972-4.625408.75-7.5625.75s-5.598533-.269028-7.5625-.75c-.262771-.06435-.483451-.147651-.71875-.21875z" color="#000" enable-background="accumulate" font-family="Bitstream Vera Sans" font-weight="400" overflow="visible" style="text-indent:0;text-align:start;line-height:normal;text-transform:none;block-progression:tb;marker:none;-inkscape-font-specification:Bitstream Vera Sans" transform="translate(0 -23)"/>
  <path fill="#2e3436" d="M-38 13a16 3 0 1 1-32 0 16 3 0 1 1 32 0z" filter="url(#A)" transform="matrix(.94063 0 0 1.49627 -3.206242 -9.4516)"/>
  <path fill="url(#B)" d="M8 8.5c-4.1421358 0-7.5.8954304-7.5 2v3c0 1.10457 3.3578642 2 7.5 2 4.142136 0 7.5-.89543 7.5-2v-3c0-1.1045696-3.357864-2-7.5-2z" transform="matrix(1.93333 0 0 1.85714 -69.466666 -15.2857)"/>
  <path fill="url(#C)" d="M-68.09375 25.375c-.25473.275661-.40625.548144-.40625.84375v5.5625C-68.5 33.832594-62.00812 35.5-54 35.5s14.5-1.667406 14.5-3.71875v-5.5625c0-.295606-.151521-.568089-.40625-.84375-.133219.103735-.281453.218099-.4375.3125-.805562.487325-1.905303.874679-3.25 1.21875C-46.283144 27.594394-49.95468 28-54 28s-7.716856-.405606-10.40625-1.09375c-1.344697-.344071-2.444438-.731425-3.25-1.21875-.156047-.0944-.304281-.208765-.4375-.3125z" transform="translate(0 -22)"/>
  <path fill="url(#D)" d="M-54 18c-3.967299 0-7.594691.406336-10.15625 1.0625-1.280779.328082-2.305938.692334-2.96875 1.09375-.662812.401416-.875.797954-.875 1.0625v5.5625c0 .264546.212188.661084.875 1.0625s1.687971.765669 2.96875 1.09375C-61.594691 29.593664-57.967299 30-54 30c3.9673 0 7.594691-.406336 10.15625-1.0625 1.28078-.328081 2.305938-.692334 2.96875-1.09375.662812-.401416.875-.797954.875-1.0625v-5.5625c0-.264546-.212188-.661084-.875-1.0625s-1.68797-.765668-2.96875-1.09375C-46.405309 18.406336-50.0327 18-54 18zm0 1c3.893777 0 7.407034.375816 9.84375 1 1.218358.312093 2.197793.715746 2.71875 1.03125.390718.236628.440654.370108.4375.3125v5.3125c.0032-.05761-.04678.07587-.4375.3125-.520957.315504-1.500392.719157-2.71875 1.03125-2.436714.624184-5.949973 1-9.84375 1s-7.407035-.375816-9.84375-1c-1.218358-.312093-2.197792-.715746-2.71875-1.03125-.390718-.236628-.440654-.370108-.4375-.3125v-5.3125c-.0032.05761.04678-.07587.4375-.3125.520958-.315504 1.500392-.719157 2.71875-1.03125 2.436715-.624184 5.949973-1 9.84375-1z" color="#000" enable-background="accumulate" font-family="Bitstream Vera Sans" font-weight="400" overflow="visible" style="text-indent:0;text-align:start;line-height:normal;text-transform:none;block-progression:tb;marker:none;-inkscape-font-specification:Bitstream Vera Sans" transform="translate(0 -17)"/>
  <use xlink:href="#h" stroke-width=".52774519" transform="matrix(1.93333 0 0 1.85714 -69.466666 -15.2857)"/>
  <path fill="url(#E)" d="M-66.625 28.09375c-.298856.196392-.377901.302233-.375.25V29c.712406.330662 1.586349.616947 2.59375.875 2.686403.688144 6.365429 1.09375 10.40625 1.09375s7.719848-.405606 10.40625-1.09375c1.007401-.258053 1.881344-.544338 2.59375-.875v-.65625c.0029.05223-.07615-.05361-.375-.25-.636677.299404-1.472588.588576-2.46875.84375-2.561559.656164-6.18895 1.09375-10.15625 1.09375-3.967299 0-7.594691-.437586-10.15625-1.09375-.996161-.255174-1.832073-.544346-2.46875-.84375z" color="#000" enable-background="accumulate" font-family="Bitstream Vera Sans" font-weight="400" overflow="visible" style="text-indent:0;text-align:start;line-height:normal;text-transform:none;block-progression:tb;marker:none;-inkscape-font-specification:Bitstream Vera Sans" transform="translate(0 -24)"/>
  <path fill="url(#F)" d="M8 8.5c-4.1421358 0-7.5.8954304-7.5 2v3c0 1.10457 3.3578642 2 7.5 2 4.142136 0 7.5-.89543 7.5-2v-3c0-1.1045696-3.357864-2-7.5-2z" transform="matrix(1.93333 0 0 1.85714 -69.466666 -23.2857)"/>
  <path fill="url(#G)" d="M-68.09375 25.375c-.25473.275661-.40625.548144-.40625.84375v5.5625C-68.5 33.832594-62.00812 35.5-54 35.5s14.5-1.667406 14.5-3.71875v-5.5625c0-.295606-.151521-.568089-.40625-.84375-.133219.103735-.281453.218099-.4375.3125-.805562.487325-1.905303.874679-3.25 1.21875C-46.283144 27.594394-49.95468 28-54 28s-7.716856-.405606-10.40625-1.09375c-1.344697-.344071-2.444438-.731425-3.25-1.21875-.156047-.0944-.304281-.208765-.4375-.3125z" transform="translate(0 -30)"/>
  <path fill="url(#H)" d="M-54 18c-3.967299 0-7.594691.406336-10.15625 1.0625-1.280779.328082-2.305938.692334-2.96875 1.09375-.662812.401416-.875.797954-.875 1.0625v5.5625c0 .264546.212188.661084.875 1.0625s1.687971.765669 2.96875 1.09375C-61.594691 29.593664-57.967299 30-54 30c3.9673 0 7.594691-.406336 10.15625-1.0625 1.28078-.328081 2.305938-.692334 2.96875-1.09375.662812-.401416.875-.797954.875-1.0625v-5.5625c0-.264546-.212188-.661084-.875-1.0625s-1.68797-.765668-2.96875-1.09375C-46.405309 18.406336-50.0327 18-54 18zm0 1c3.893777 0 7.407034.375816 9.84375 1 1.218358.312093 2.197793.715746 2.71875 1.03125.390718.236628.440654.370108.4375.3125v5.3125c.0032-.05761-.04678.07587-.4375.3125-.520957.315504-1.500392.719157-2.71875 1.03125-2.436714.624184-5.949973 1-9.84375 1s-7.407035-.375816-9.84375-1c-1.218358-.312093-2.197792-.715746-2.71875-1.03125-.390718-.236628-.440654-.370108-.4375-.3125v-5.3125c-.0032.05761.04678-.07587.4375-.3125.520958-.315504 1.500392-.719157 2.71875-1.03125 2.436715-.624184 5.949973-1 9.84375-1z" color="#000" enable-background="accumulate" font-family="Bitstream Vera Sans" font-weight="400" overflow="visible" style="text-indent:0;text-align:start;line-height:normal;text-transform:none;block-progression:tb;marker:none;-inkscape-font-specification:Bitstream Vera Sans" transform="translate(0 -25)"/>
  <use xlink:href="#h" stroke-width=".52774519" transform="matrix(1.93333 0 0 1.85714 -69.466666 -23.2857)"/>
  <path fill="url(#I)" d="M-66.625 28.09375c-.298856.196392-.377901.302233-.375.25V29c.712406.330662 1.586349.616947 2.59375.875 2.686403.688144 6.365429 1.09375 10.40625 1.09375s7.719848-.405606 10.40625-1.09375c1.007401-.258053 1.881344-.544338 2.59375-.875v-.65625c.0029.05223-.07615-.05361-.375-.25-.636677.299404-1.472588.588576-2.46875.84375-2.561559.656164-6.18895 1.09375-10.15625 1.09375-3.967299 0-7.594691-.437586-10.15625-1.09375-.996161-.255174-1.832073-.544346-2.46875-.84375z" color="#000" enable-background="accumulate" font-family="Bitstream Vera Sans" font-weight="400" overflow="visible" style="text-indent:0;text-align:start;line-height:normal;text-transform:none;block-progression:tb;marker:none;-inkscape-font-specification:Bitstream Vera Sans" transform="translate(0 -32)"/>
  <path fill="url(#J)" d="M8 8.5c-4.1421358 0-7.5.8954304-7.5 2v3c0 1.10457 3.3578642 2 7.5 2 4.142136 0 7.5-.89543 7.5-2v-3c0-1.1045696-3.357864-2-7.5-2z" transform="matrix(1.93333 0 0 1.85714 -69.466666 -31.2857)"/>
  <path fill="url(#K)" d="M-68.09375 25.375c-.25473.275661-.40625.548144-.40625.84375v5.5625C-68.5 33.832594-62.00812 35.5-54 35.5s14.5-1.667406 14.5-3.71875v-5.5625c0-.295606-.151521-.568089-.40625-.84375-.133219.103735-.281453.218099-.4375.3125-.805562.487325-1.905303.874679-3.25 1.21875C-46.283144 27.594394-49.95468 28-54 28s-7.716856-.405606-10.40625-1.09375c-1.344697-.344071-2.444438-.731425-3.25-1.21875-.156047-.0944-.304281-.208765-.4375-.3125z" transform="translate(0 -38)"/>
  <path fill="url(#L)" d="M-54 18c-3.967299 0-7.594691.406336-10.15625 1.0625-1.280779.328082-2.305938.692334-2.96875 1.09375-.662812.401416-.875.797954-.875 1.0625v5.5625c0 .264546.212188.661084.875 1.0625s1.687971.765669 2.96875 1.09375C-61.594691 29.593664-57.967299 30-54 30c3.9673 0 7.594691-.406336 10.15625-1.0625 1.28078-.328081 2.305938-.692334 2.96875-1.09375.662812-.401416.875-.797954.875-1.0625v-5.5625c0-.264546-.212188-.661084-.875-1.0625s-1.68797-.765668-2.96875-1.09375C-46.405309 18.406336-50.0327 18-54 18zm0 1c3.893777 0 7.407034.375816 9.84375 1 1.218358.312093 2.197793.715746 2.71875 1.03125.390718.236628.440654.370108.4375.3125v5.3125c.0032-.05761-.04678.07587-.4375.3125-.520957.315504-1.500392.719157-2.71875 1.03125-2.436714.624184-5.949973 1-9.84375 1s-7.407035-.375816-9.84375-1c-1.218358-.312093-2.197792-.715746-2.71875-1.03125-.390718-.236628-.440654-.370108-.4375-.3125v-5.3125c-.0032.05761.04678-.07587.4375-.3125.520958-.315504 1.500392-.719157 2.71875-1.03125 2.436715-.624184 5.949973-1 9.84375-1z" color="#000" enable-background="accumulate" font-family="Bitstream Vera Sans" font-weight="400" overflow="visible" style="text-indent:0;text-align:start;line-height:normal;text-transform:none;block-progression:tb;marker:none;-inkscape-font-specification:Bitstream Vera Sans" transform="translate(0 -33)"/>
  <use xlink:href="#h" stroke-width=".52774519" transform="matrix(1.93333 0 0 1.85714 -69.466666 -31.2857)"/>
  <path fill="url(#M)" d="M-66.625 28.09375c-.298856.196392-.377901.302233-.375.25V29c.712406.330662 1.586349.616947 2.59375.875 2.686403.688144 6.365429 1.09375 10.40625 1.09375s7.719848-.405606 10.40625-1.09375c1.007401-.258053 1.881344-.544338 2.59375-.875v-.65625c.0029.05223-.07615-.05361-.375-.25-.636677.299404-1.472588.588576-2.46875.84375-2.561559.656164-6.18895 1.09375-10.15625 1.09375-3.967299 0-7.594691-.437586-10.15625-1.09375-.996161-.255174-1.832073-.544346-2.46875-.84375z" color="#000" enable-background="accumulate" font-family="Bitstream Vera Sans" font-weight="400" overflow="visible" style="text-indent:0;text-align:start;line-height:normal;text-transform:none;block-progression:tb;marker:none;-inkscape-font-specification:Bitstream Vera Sans" transform="translate(0 -40)"/>
  <path fill="#2e3436" fill-opacity=".8" d="M-81 6a21 4 0 1 1-42 0 21 4 0 1 1 42 0z" clip-path="url(#N)" filter="url(#O)" transform="matrix(1.04762 0 0 1.375 4.8571429 -1.75)"/>
  <path fill="url(#P)" d="M8 8.5c-4.1421358 0-7.5.8954304-7.5 2v3c0 1.10457 3.3578642 2 7.5 2 4.142136 0 7.5-.89543 7.5-2v-3c0-1.1045696-3.357864-2-7.5-2z" transform="matrix(2.73333 0 0 2.57143 -123.86778 -29.3571)"/>
  <path fill="url(#Q)" d="M-122.34375 19.5c-.10465.210567-.15625.438571-.15625.65625v8.1875c0 2.840323 9.17816 5.15625 20.5 5.15625 11.321838 0 20.5-2.315927 20.5-5.15625v-8.1875c0-.217679-.0516-.445683-.15625-.65625C-82.91709 22.036959-91.545854 24-102 24c-10.45415 0-19.08291-1.963041-20.34375-4.5z" transform="translate(0 -23)"/>
  <path fill="url(#R)" d="M-102 15c-5.62377 0-10.69706.58515-14.34375 1.5-1.82335.457425-3.31556.958477-4.28125 1.53125-.96569.572773-1.375 1.160633-1.375 1.625v7.6875c0 .464367.40931 1.052227 1.375 1.625.96569.572773 2.4579 1.073826 4.28125 1.53125 3.64669.91485 8.71998 1.5 14.34375 1.5 5.623773 0 10.697057-.58515 14.34375-1.5 1.823347-.457424 3.315563-.958477 4.28125-1.53125S-82 27.808117-82 27.34375v-7.6875c0-.464367-.409313-1.052227-1.375-1.625s-2.457903-1.073825-4.28125-1.53125C-91.302943 15.58515-96.376227 15-102 15zm0 1c5.540038 0 10.547949.487269 14.0625 1.375 1.757277.443866 3.116554.947245 3.9375 1.4375.820946.490255 1 .8397 1 .8125v7.75c0-.02719-.179049.322245-1 .8125-.820946.490255-2.180223.993634-3.9375 1.4375C-91.452048 30.51273-96.459962 31-102 31c-5.54004 0-10.54795-.48727-14.0625-1.375-1.75728-.443866-3.11655-.947245-3.9375-1.4375-.82095-.490255-1-.8397-1-.8125v-7.75c0 .02719.17905-.322245 1-.8125.82095-.490255 2.18022-.993634 3.9375-1.4375C-112.54795 16.487269-107.54004 16-102 16z" color="#000" enable-background="accumulate" font-family="Bitstream Vera Sans" font-weight="400" overflow="visible" style="text-indent:0;text-align:start;line-height:normal;text-transform:none;block-progression:tb;marker:none;-inkscape-font-specification:Bitstream Vera Sans" transform="translate(0 -22)"/>
  <use xlink:href="#S" stroke-width=".37719545" transform="matrix(2.73333 0 0 2.57143 -123.86778 -29.3571)"/>
  <path fill="url(#T)" d="M-121 27.78125v1C-117.95001 30.661516-110.59047 32-102 32c8.590466 0 15.950008-1.338484 19-3.21875v-1C-86.049992 29.661516-93.409534 31-102 31c-8.59047 0-15.95001-1.338484-19-3.21875z" transform="translate(0 -30)"/>
  <path fill="url(#U)" d="M8 8.5c-4.1421358 0-7.5.8954304-7.5 2v3c0 1.10457 3.3578642 2 7.5 2 4.142136 0 7.5-.89543 7.5-2v-3c0-1.1045696-3.357864-2-7.5-2z" transform="matrix(2.73333 0 0 2.57143 -123.86778 -41.3571)"/>
  <path fill="url(#V)" d="M-122.34375 19.5c-.10465.210567-.15625.438571-.15625.65625v8.1875c0 2.840323 9.17816 5.15625 20.5 5.15625 11.321838 0 20.5-2.315927 20.5-5.15625v-8.1875c0-.217679-.0516-.445683-.15625-.65625C-82.91709 22.036959-91.545854 24-102 24c-10.45415 0-19.08291-1.963041-20.34375-4.5z" transform="translate(0 -35)"/>
  <path fill="url(#W)" d="M-102 15c-5.62377 0-10.69706.58515-14.34375 1.5-1.82335.457425-3.31556.958477-4.28125 1.53125-.96569.572773-1.375 1.160633-1.375 1.625v7.6875c0 .464367.40931 1.052227 1.375 1.625.96569.572773 2.4579 1.073826 4.28125 1.53125 3.64669.91485 8.71998 1.5 14.34375 1.5 5.623773 0 10.697057-.58515 14.34375-1.5 1.823347-.457424 3.315563-.958477 4.28125-1.53125S-82 27.808117-82 27.34375v-7.6875c0-.464367-.409313-1.052227-1.375-1.625s-2.457903-1.073825-4.28125-1.53125C-91.302943 15.58515-96.376227 15-102 15zm0 1c5.540038 0 10.547949.487269 14.0625 1.375 1.757277.443866 3.116554.947245 3.9375 1.4375.820946.490255 1 .8397 1 .8125v7.75c0-.02719-.179049.322245-1 .8125-.820946.490255-2.180223.993634-3.9375 1.4375C-91.452048 30.51273-96.459962 31-102 31c-5.54004 0-10.54795-.48727-14.0625-1.375-1.75728-.443866-3.11655-.947245-3.9375-1.4375-.82095-.490255-1-.8397-1-.8125v-7.75c0 .02719.17905-.322245 1-.8125.82095-.490255 2.18022-.993634 3.9375-1.4375C-112.54795 16.487269-107.54004 16-102 16z" color="#000" enable-background="accumulate" font-family="Bitstream Vera Sans" font-weight="400" overflow="visible" style="text-indent:0;text-align:start;line-height:normal;text-transform:none;block-progression:tb;marker:none;-inkscape-font-specification:Bitstream Vera Sans" transform="translate(0 -34)"/>
  <use xlink:href="#S" stroke-width=".37719545" transform="matrix(2.73333 0 0 2.57143 -123.86778 -41.3571)"/>
  <path fill="url(#X)" d="M-121 27.78125v1C-117.95001 30.661516-110.59047 32-102 32c8.590466 0 15.950008-1.338484 19-3.21875v-1C-86.049992 29.661516-93.409534 31-102 31c-8.59047 0-15.95001-1.338484-19-3.21875z" transform="translate(0 -42)"/>
  <path fill="url(#Y)" d="M8 8.5c-4.1421358 0-7.5.8954304-7.5 2v3c0 1.10457 3.3578642 2 7.5 2 4.142136 0 7.5-.89543 7.5-2v-3c0-1.1045696-3.357864-2-7.5-2z" transform="matrix(2.73333 0 0 2.57143 -123.86778 -53.3571)"/>
  <path fill="url(#Z)" d="M-122.34375 19.5c-.10465.210567-.15625.438571-.15625.65625v8.1875c0 2.840323 9.17816 5.15625 20.5 5.15625 11.321838 0 20.5-2.315927 20.5-5.15625v-8.1875c0-.217679-.0516-.445683-.15625-.65625C-82.91709 22.036959-91.545854 24-102 24c-10.45415 0-19.08291-1.963041-20.34375-4.5z" transform="translate(0 -47)"/>
  <path fill="url(#aa)" d="M-102 15c-5.62377 0-10.69706.58515-14.34375 1.5-1.82335.457425-3.31556.958477-4.28125 1.53125-.96569.572773-1.375 1.160633-1.375 1.625v7.6875c0 .464367.40931 1.052227 1.375 1.625.96569.572773 2.4579 1.073826 4.28125 1.53125 3.64669.91485 8.71998 1.5 14.34375 1.5 5.623773 0 10.697057-.58515 14.34375-1.5 1.823347-.457424 3.315563-.958477 4.28125-1.53125S-82 27.808117-82 27.34375v-7.6875c0-.464367-.409313-1.052227-1.375-1.625s-2.457903-1.073825-4.28125-1.53125C-91.302943 15.58515-96.376227 15-102 15zm0 1c5.540038 0 10.547949.487269 14.0625 1.375 1.757277.443866 3.116554.947245 3.9375 1.4375.820946.490255 1 .8397 1 .8125v7.75c0-.02719-.179049.322245-1 .8125-.820946.490255-2.180223.993634-3.9375 1.4375C-91.452048 30.51273-96.459962 31-102 31c-5.54004 0-10.54795-.48727-14.0625-1.375-1.75728-.443866-3.11655-.947245-3.9375-1.4375-.82095-.490255-1-.8397-1-.8125v-7.75c0 .02719.17905-.322245 1-.8125.82095-.490255 2.18022-.993634 3.9375-1.4375C-112.54795 16.487269-107.54004 16-102 16z" color="#000" enable-background="accumulate" font-family="Bitstream Vera Sans" font-weight="400" overflow="visible" style="text-indent:0;text-align:start;line-height:normal;text-transform:none;block-progression:tb;marker:none;-inkscape-font-specification:Bitstream Vera Sans" transform="translate(0 -46)"/>
  <use xlink:href="#S" stroke-width=".37719545" transform="matrix(2.73333 0 0 2.57143 -123.86778 -53.3571)"/>
  <path fill="url(#ab)" d="M-121 27.78125v1C-117.95001 30.661516-110.59047 32-102 32c8.590466 0 15.950008-1.338484 19-3.21875v-1C-86.049992 29.661516-93.409534 31-102 31c-8.59047 0-15.95001-1.338484-19-3.21875z" transform="translate(0 -54)"/>
</svg>