<?xml version="1.0" encoding="utf-8"?>
<svg id="master-artboard" viewBox="0 0 600 600" xmlns="http://www.w3.org/2000/svg" width="600px" height="600px" version="1.1">
 
 <metadata id="CorelCorpID_0Corel-Layer"/>
<g transform="matrix(3.9503464698791504, 0, 0, 3.9503464698791504, 88.9049928516684, -6.415404796600342)"><g>
	<path fill="#F05133" d="M92.71,44.408L52.591,4.291c-2.31-2.311-6.057-2.311-8.369,0l-8.33,8.332L46.459,23.19&#10;&#9;&#9;c2.456-0.83,5.272-0.273,7.229,1.685c1.969,1.97,2.521,4.81,1.67,7.275l10.186,10.185c2.465-0.85,5.307-0.3,7.275,1.671&#10;&#9;&#9;c2.75,2.75,2.75,7.206,0,9.958c-2.752,2.751-7.208,2.751-9.961,0c-2.068-2.07-2.58-5.11-1.531-7.658l-9.5-9.499v24.997&#10;&#9;&#9;c0.67,0.332,1.303,0.774,1.861,1.332c2.75,2.75,2.75,7.206,0,9.959c-2.75,2.749-7.209,2.749-9.957,0c-2.75-2.754-2.75-7.21,0-9.959&#10;&#9;&#9;c0.68-0.679,1.467-1.193,2.307-1.537V36.369c-0.84-0.344-1.625-0.853-2.307-1.537c-2.083-2.082-2.584-5.14-1.516-7.698&#10;&#9;&#9;L31.798,16.715L4.288,44.222c-2.311,2.313-2.311,6.06,0,8.371l40.121,40.118c2.31,2.311,6.056,2.311,8.369,0L92.71,52.779&#10;&#9;&#9;C95.021,50.468,95.021,46.719,92.71,44.408z"/>
</g></g><g transform="matrix(1.0914018154144287, 0, 0, 1.0914018154144287, 316.62041536491085, 344.8539028310486)"><linearGradient id="a" x1="108.633%" x2="46.927%" y1="13.818%" y2="78.776%"><stop offset=".18" stop-color="#0052cc"/><stop offset="1" stop-color="#2684ff"/></linearGradient><g fill="none"><path d="M101.272 152.561h53.449l12.901-75.32H87.06z"/><path d="M8.308 0A8.202 8.202 0 0 0 .106 9.516l34.819 211.373a11.155 11.155 0 0 0 10.909 9.31h167.04a8.202 8.202 0 0 0 8.201-6.89l34.82-213.752a8.202 8.202 0 0 0-8.203-9.514zm146.616 152.768h-53.315l-14.436-75.42h80.67z" fill="#2684ff"/><path d="M244.61 77.242h-76.916l-12.909 75.36h-53.272l-62.902 74.663a11.105 11.105 0 0 0 7.171 2.704H212.73a8.196 8.196 0 0 0 8.196-6.884z" fill="url(#a)"/></g></g><g transform="matrix(0.27968420777959857, 0, 0, 0.27968420777959857, 4.333049774169922, 313.6661871711336)"><path fill-rule="evenodd" clip-rule="evenodd" d="M8 0C3.58 0 0 3.58 0 8C0 11.54 2.29 14.53 5.47 15.59C5.87 15.66 6.02 15.42 6.02 15.21C6.02 15.02 6.01 14.39 6.01 13.72C4 14.09 3.48 13.23 3.32 12.78C3.23 12.55 2.84 11.84 2.5 11.65C2.22 11.5 1.82 11.13 2.49 11.12C3.12 11.11 3.57 11.7 3.72 11.94C4.44 13.15 5.59 12.81 6.05 12.6C6.12 12.08 6.33 11.73 6.56 11.53C4.78 11.33 2.92 10.64 2.92 7.58C2.92 6.71 3.23 5.99 3.74 5.43C3.66 5.23 3.38 4.41 3.82 3.31C3.82 3.31 4.49 3.1 6.02 4.13C6.66 3.95 7.34 3.86 8.02 3.86C8.7 3.86 9.38 3.95 10.02 4.13C11.55 3.09 12.22 3.31 12.22 3.31C12.66 4.41 12.38 5.23 12.3 5.43C12.81 5.99 13.12 6.7 13.12 7.58C13.12 10.65 11.25 11.33 9.47 11.53C9.76 11.78 10.01 12.26 10.01 13.01C10.01 14.08 10 14.94 10 15.21C10 15.42 10.15 15.67 10.55 15.59C13.71 14.53 16 11.53 16 8C16 3.58 12.42 0 8 0Z" transform="scale(64)" fill="#1B1F23"/></g></svg>