<?xml version="1.0"?>
<svg width="100" height="100" xmlns="http://www.w3.org/2000/svg" xmlns:svg="http://www.w3.org/2000/svg" xmlns:xlink="http://www.w3.org/1999/xlink">
 <!-- Created with SVG-edit - https://github.com/SVG-Edit/svgedit-->
 <defs>
  <symbol height="188px" id="svg_196" preserveAspectRatio="xMidYMid" viewBox="0 0 256 188" width="256px" xmlns="http://www.w3.org/2000/svg" xmlns:xlink="http://www.w3.org/1999/xlink">
   <g>
    <path d="m242.08678,11.894755c-15.466335,-15.473205 -40.413142,-15.904675 -56.405303,-0.975563c-0.76741,0.723994 -1.214311,1.724202 -1.241626,2.778877c0.005642,1.050224 0.419028,2.05719 1.152938,2.808441l5.055193,5.232567c1.363093,1.357349 3.515886,1.508422 5.055192,0.35475c4.009874,-3.026248 8.900302,-4.656391 13.92395,-4.641317c9.425867,-0.041233 17.942746,5.615983 21.559368,14.320505c3.616622,8.704522 1.61633,18.731494 -5.063477,25.38197c-32.223155,32.223155 -75.236633,-58.060804 -172.852099,-11.618073c-3.357281,1.569368 -5.905597,4.470821 -7.028567,8.002561c-1.12297,3.531741 -0.718324,7.372132 1.116061,10.592269l16.732391,28.941714c3.632825,6.265721 11.617797,8.462575 17.944454,4.936942l0.413876,-0.2365l-0.325188,0.2365l7.420194,-4.168316c8.269598,-5.134906 16.083086,-10.970296 23.354397,-17.441892c1.539246,-1.320366 3.811572,-1.320366 5.350818,0l0,0c0.90867,0.712743 1.442121,1.801419 1.448563,2.956253c0.02122,1.122391 -0.44196,2.199555 -1.271188,2.956253c-7.658587,6.798152 -15.898691,12.911459 -24.625586,18.269642l-0.2365,0l-7.420194,4.138754c-3.136382,1.777539 -6.68272,2.704886 -10.28776,2.69019c-7.577269,0.00059 -14.586841,-4.016131 -18.417455,-10.553822l-15.815952,-27.345338c-30.390278,21.462395 -48.837295,62.820371 -38.933849,115.293857c0.362954,1.807136 1.940886,3.113861 3.784004,3.133629l18.033142,0c1.939461,0 3.574863,-1.445413 3.813566,-3.370129c1.66257,-13.200089 12.888021,-23.100366 26.192399,-23.100366c13.304379,0 24.529829,9.900277 26.1924,23.100366c0.252504,1.929319 1.897357,3.370129 3.843128,3.370129l17.560142,0c1.939461,0 3.574863,-1.445413 3.813566,-3.370129c1.716015,-13.164317 12.93149,-23.012701 26.20718,-23.012701c13.27569,0 24.491166,9.848384 26.207181,23.012701c0.238703,1.924716 1.874104,3.370129 3.813566,3.370129l17.353204,0c2.099624,0 3.810826,-1.684629 3.843128,-3.784004c0.413876,-24.448211 7.006319,-52.532612 25.808087,-66.604375c65.126248,-48.719046 48.009545,-90.490897 32.932656,-105.656474zm-66.427,73.699382l-12.416316,-6.237694l0,0c-0.01359,-3.684768 2.5518,-6.877044 6.153166,-7.656703c3.601365,-0.779659 7.257363,1.065749 8.768944,4.426229c1.51158,3.360479 0.466851,7.320327 -2.505794,9.49773l0,-0.029562z" fill="#02303A" fill-rule="nonzero"/>
   </g>
  </symbol>
  <symbol id="svg_217" viewBox="0 0 32 32" xmlns="http://www.w3.org/2000/svg" xmlns:xlink="http://www.w3.org/1999/xlink">
   <defs>
    <linearGradient gradientTransform="matrix(-0.023, -0.116, -0.116, 0.023, 79.68, -889.484)" gradientUnits="userSpaceOnUse" id="svg_216" x1="-7274.8" x2="-7243.872" y1="2082.507" y2="2046.343">
     <stop offset="0" stop-color="#f69923"/>
     <stop offset="0.312" stop-color="#f79a23"/>
     <stop offset="0.838" stop-color="#e97826"/>
    </linearGradient>
    <linearGradient gradientTransform="matrix(-0.023, -0.116, -0.116, 0.023, 79.68, -889.484)" gradientUnits="userSpaceOnUse" id="svg_215" x1="-7503.689" x2="-7283.036" y1="2086.595" y2="2086.595">
     <stop offset="0.323" stop-color="#9e2064"/>
     <stop offset="0.63" stop-color="#c92037"/>
     <stop offset="0.751" stop-color="#cd2335"/>
     <stop offset="1" stop-color="#e97826"/>
    </linearGradient>
    <linearGradient gradientTransform="matrix(-0.023, -0.116, -0.116, 0.023, 79.68, -889.484)" gradientUnits="userSpaceOnUse" id="svg_214" x1="-7477.053" x2="-7345.566" y1="2064.42" y2="2064.42">
     <stop offset="0" stop-color="#282662"/>
     <stop offset="0.095" stop-color="#662e8d"/>
     <stop offset="0.788" stop-color="#9f2064"/>
     <stop offset="0.949" stop-color="#cd2032"/>
    </linearGradient>
    <linearGradient id="svg_213" x1="-7491.296" x2="-7270.643" xlink:href="#svg_215" y1="2088.633" y2="2088.633"/>
    <linearGradient id="svg_212" x1="-7475.203" x2="-7359.244" xlink:href="#svg_214" y1="2085.61" y2="2085.61"/>
    <linearGradient id="svg_211" x1="-7491.296" x2="-7270.643" xlink:href="#svg_215" y1="2065.799" y2="2065.799"/>
    <linearGradient id="svg_210" x1="-7504.984" x2="-7284.331" xlink:href="#svg_215" y1="2066.905" y2="2066.905"/>
    <linearGradient id="svg_209" x1="-7491.296" x2="-7270.643" xlink:href="#svg_215" y1="2058.959" y2="2058.959"/>
    <linearGradient id="svg_208" x1="-7491.296" x2="-7270.643" xlink:href="#svg_215" y1="2059.762" y2="2059.762"/>
    <linearGradient gradientTransform="matrix(0.074, -0.112, -0.112, -0.074, 864.083, -775.51)" id="svg_207" x1="-8307.632" x2="-8276.704" xlink:href="#svg_216" y1="2040.008" y2="2003.844"/>
    <linearGradient gradientTransform="matrix(0.074, -0.112, -0.112, -0.074, 864.083, -775.51)" id="svg_206" x1="-8536.521" x2="-8315.868" xlink:href="#svg_215" y1="2044.096" y2="2044.096"/>
    <linearGradient gradientTransform="matrix(0.074, -0.112, -0.112, -0.074, 864.083, -775.51)" id="svg_205" x1="-8509.885" x2="-8378.397" xlink:href="#svg_214" y1="2021.921" y2="2021.921"/>
    <linearGradient gradientTransform="matrix(0.074, -0.112, -0.112, -0.074, 864.083, -775.51)" id="svg_204" x1="-8524.128" x2="-8303.475" xlink:href="#svg_215" y1="2046.134" y2="2046.134"/>
    <linearGradient gradientTransform="matrix(0.074, -0.112, -0.112, -0.074, 864.083, -775.51)" id="svg_203" x1="-8508.035" x2="-8392.076" xlink:href="#svg_214" y1="2043.111" y2="2043.111"/>
    <linearGradient gradientTransform="matrix(0.074, -0.112, -0.112, -0.074, 864.083, -775.51)" id="svg_202" x1="-8524.128" x2="-8303.475" xlink:href="#svg_215" y1="2023.3" y2="2023.3"/>
    <linearGradient gradientTransform="matrix(0.074, -0.112, -0.112, -0.074, 864.083, -775.51)" id="svg_201" x1="-8537.816" x2="-8317.163" xlink:href="#svg_215" y1="2024.407" y2="2024.407"/>
    <linearGradient gradientTransform="matrix(0.074, -0.112, -0.112, -0.074, 864.083, -775.51)" id="svg_200" x1="-8524.128" x2="-8303.475" xlink:href="#svg_215" y1="2016.46" y2="2016.46"/>
    <linearGradient gradientTransform="matrix(0.074, -0.112, -0.112, -0.074, 864.083, -775.51)" id="svg_199" x1="-8524.128" x2="-8303.475" xlink:href="#svg_215" y1="2017.263" y2="2017.263"/>
   </defs>
   <title>file_type_maven</title>
   <path d="m5.976,2.533a9.539,9.539 0 0 0 -0.4,2.655l1.427,0.691a17.928,17.928 0 0 1 0.1,-2.541c0.005,-0.058 0.011,-0.092 0.011,-0.092c0,0.031 -0.009,0.061 -0.011,0.092a15.939,15.939 0 0 0 -0.003,2.507a27.79,27.79 0 0 0 2.114,-2a3.041,3.041 0 0 0 -1.593,-1.701s-1.264,-0.51 -1.645,0.389z" fill="url(#svg_216)"/>
   <path d="m9.688,9.722a0.018,0.018 0 0 0 0.012,-0.013l-0.08,0.071c0,0.007 -0.009,0.013 -0.01,0.019l0.078,-0.077z" fill="none"/>
   <path d="m10.562,12.19c-0.038,0.046 -0.083,0.091 -0.128,0.136c0.044,-0.044 0.089,-0.09 0.128,-0.136z" fill="none"/>
   <path d="m9.741,19.776c0,-0.021 -0.014,-0.044 -0.018,-0.065c-0.122,-0.445 -0.24,-0.876 -0.355,-1.3c-0.125,-0.474 -0.244,-0.939 -0.359,-1.391c-0.118,-0.473 -0.231,-0.937 -0.336,-1.384c-0.112,-0.472 -0.215,-0.925 -0.311,-1.366c-0.077,-0.359 -0.152,-0.707 -0.221,-1.047c-0.024,-0.115 -0.045,-0.225 -0.066,-0.336c-0.042,-0.222 -0.086,-0.436 -0.126,-0.647s-0.073,-0.386 -0.109,-0.575c-0.011,-0.064 -0.022,-0.128 -0.034,-0.186l-0.006,-0.035l-0.069,0.062l-0.142,-0.07c0,0.015 0.005,0.032 0.01,0.047c0.047,0.285 0.1,0.573 0.152,0.863c0.03,0.164 0.063,0.332 0.093,0.5c0.088,0.465 0.181,0.926 0.282,1.393s0.2,0.94 0.308,1.4s0.214,0.914 0.324,1.368s0.222,0.9 0.338,1.346c0.119,0.466 0.24,0.925 0.365,1.374c0.026,0.1 0.055,0.206 0.085,0.3c0.1,0.366 0.2,0.721 0.3,1.073l0.229,0.115l0.076,-0.068a0.069,0.069 0 0 0 -0.009,-0.029c-0.149,-0.45 -0.277,-0.903 -0.401,-1.342z" fill="none"/>
   <path d="m10.924,13.495c-0.067,0.073 -0.136,0.142 -0.206,0.211l0,0c0.036,-0.033 0.073,-0.072 0.107,-0.108a1.212,1.212 0 0 0 0.099,-0.103z" fill="#be202e"/>
   <path d="m10.924,13.495c-0.067,0.073 -0.136,0.142 -0.206,0.211l0,0c0.036,-0.033 0.073,-0.072 0.107,-0.108a1.212,1.212 0 0 0 0.099,-0.103z" fill="#be202e" opacity="0.35"/>
   <path d="m10.4,12.356l0,0c0.012,-0.009 0.021,-0.021 0.032,-0.03c0.045,-0.045 0.09,-0.09 0.128,-0.136c-0.05,0.055 -0.107,0.108 -0.161,0.166l0.001,0z" fill="#be202e"/>
   <path d="m10.4,12.356l0,0c0.012,-0.009 0.021,-0.021 0.032,-0.03c0.045,-0.045 0.09,-0.09 0.128,-0.136c-0.05,0.055 -0.107,0.108 -0.161,0.166l0.001,0z" fill="#be202e" opacity="0.35"/>
   <path d="m7.38,10.092q-0.1,-0.712 -0.18,-1.4c-0.055,-0.477 -0.1,-0.945 -0.131,-1.408c0,-0.028 -0.005,-0.056 0,-0.081c-0.037,-0.452 -0.059,-0.893 -0.069,-1.325l-1.425,-0.687c0,0.086 -0.01,0.175 -0.013,0.269c-0.014,0.341 -0.025,0.7 -0.028,1.085c0,0.43 0,0.878 0.008,1.347c0.01,0.432 0.028,0.882 0.051,1.34c0.023,0.392 0.049,0.788 0.081,1.192c0,0.017 0,0.028 0,0.046l1.906,0.965c-0.063,-0.451 -0.133,-0.899 -0.2,-1.343z" fill="url(#svg_215)"/>
   <path d="m10.2,21.362c0.1,0.356 0.212,0.723 0.328,1.095c0,0 0,0.011 0,0.015c0.016,0.054 0.029,0.105 0.049,0.157c0.076,0.251 0.149,0.474 0.307,0.984a1.927,1.927 0 0 1 1.094,0.262a1.563,1.563 0 0 0 -1.041,-0.566a3.349,3.349 0 0 0 1.827,-2.977c-0.012,-0.106 -0.026,-0.216 -0.047,-0.326a1.347,1.347 0 0 1 -0.766,1.152l0,0l0,0a3.766,3.766 0 0 0 0.61,-2.373c-0.015,-0.193 -0.04,-0.4 -0.075,-0.619a3.056,3.056 0 0 1 -1.772,2.462l-0.578,0.532c0.021,0.067 0.039,0.133 0.064,0.202z" fill="url(#svg_214)"/>
   <path d="m9.453,19.735c-0.121,-0.452 -0.242,-0.911 -0.365,-1.374c-0.116,-0.444 -0.227,-0.892 -0.338,-1.346s-0.218,-0.911 -0.324,-1.368s-0.21,-0.934 -0.308,-1.4s-0.19,-0.931 -0.282,-1.393c-0.033,-0.168 -0.063,-0.332 -0.093,-0.5c-0.053,-0.286 -0.1,-0.574 -0.152,-0.863c0,-0.015 -0.005,-0.032 -0.01,-0.047l-1.895,-0.967a0.679,0.679 0 0 1 0.007,0.091c0.038,0.429 0.075,0.865 0.126,1.3s0.106,0.89 0.172,1.341c0.056,0.38 0.116,0.757 0.179,1.138c0.013,0.075 0.028,0.154 0.041,0.228c0.087,0.471 0.181,0.926 0.282,1.351c0.113,0.482 0.235,0.934 0.357,1.356c0.082,0.276 0.163,0.542 0.246,0.794c0.072,0.212 0.15,0.425 0.225,0.635c0.181,0.493 0.382,0.971 0.6,1.438l1.915,0.97c-0.1,-0.352 -0.2,-0.71 -0.3,-1.073c-0.028,-0.105 -0.054,-0.206 -0.083,-0.311z" fill="url(#svg_213)"/>
   <path d="m7.947,20.208a14.86,14.86 0 0 0 0.881,1.627c0.011,0.016 0.022,0.038 0.033,0.054a3.864,3.864 0 0 0 -1.46,-0.113a5.37,5.37 0 0 1 2.353,1.371a2.468,2.468 0 0 1 -1.112,0.558a2.46,2.46 0 0 0 1.22,-0.108a3,3 0 0 0 -0.742,1.447a3.084,3.084 0 0 1 1.205,-1.276c0.575,1.906 1.267,3.972 2.034,6.14a0.577,0.577 0 0 0 0.09,-0.541c-0.141,-0.389 -1.054,-2.968 -2.095,-6.468c-0.03,-0.1 -0.056,-0.2 -0.089,-0.3c-0.009,-0.029 -0.016,-0.054 -0.025,-0.084q-0.16,-0.55 -0.326,-1.132c-0.024,-0.09 -0.05,-0.174 -0.074,-0.265l0,0l-1.915,-0.97a0.357,0.357 0 0 0 0.022,0.06z" fill="url(#svg_212)"/>
   <path d="m7.806,11.476c0.011,0.064 0.023,0.121 0.034,0.186c0.037,0.19 0.07,0.382 0.109,0.575c0.04,0.211 0.084,0.426 0.126,0.647c0.021,0.111 0.042,0.222 0.066,0.336c0.069,0.34 0.144,0.688 0.221,1.047c0.1,0.441 0.2,0.894 0.311,1.366c0.1,0.446 0.218,0.911 0.336,1.384c0.115,0.451 0.231,0.913 0.359,1.391c0.112,0.423 0.233,0.858 0.355,1.3c0,0.021 0.014,0.044 0.018,0.065c0.123,0.439 0.252,0.892 0.386,1.353a0.069,0.069 0 0 0 0.009,0.029l0.578,-0.532c-0.015,0 -0.026,0.013 -0.045,0.021a5.547,5.547 0 0 0 1.408,-3.114a7.47,7.47 0 0 0 -0.018,-1.737a11.925,11.925 0 0 0 -0.278,-1.486c-0.114,-0.458 -0.254,-0.944 -0.425,-1.456a2.891,2.891 0 0 1 -0.441,0.637l-0.1,0.11c-0.033,0.037 -0.07,0.069 -0.107,0.108l0,0a3.377,3.377 0 0 0 0.416,-2.507a3.176,3.176 0 0 1 -0.572,0.991c-0.038,0.046 -0.083,0.091 -0.128,0.136c-0.012,0.009 -0.021,0.021 -0.036,0.033l0,0a3.52,3.52 0 0 0 0.371,-0.814a1.509,1.509 0 0 0 0.043,-0.17c0.02,-0.087 0.034,-0.175 0.047,-0.263c0.005,-0.058 0.014,-0.112 0.019,-0.171a2.461,2.461 0 0 0 0,-0.413c0,-0.046 0,-0.087 -0.011,-0.13c-0.011,-0.064 -0.019,-0.124 -0.031,-0.182c-0.046,-0.267 -0.1,-0.5 -0.149,-0.7c-0.026,-0.1 -0.05,-0.192 -0.076,-0.275c-0.012,-0.033 -0.018,-0.065 -0.03,-0.1c-0.031,-0.091 -0.056,-0.175 -0.084,-0.245a2.452,2.452 0 0 0 -0.105,-0.242l0,0a0.532,0.532 0 0 1 -0.042,0.115a3.749,3.749 0 0 1 -0.65,0.934l0.533,-0.487l-0.536,0.484a0.018,0.018 0 0 0 -0.009,0.013a1.082,1.082 0 0 0 -0.078,0.087c0,-0.007 0.009,-0.013 0.01,-0.019l-1.82,1.665c0.015,0.013 0.017,0.023 0.016,0.03z" fill="url(#svg_211)"/>
   <path d="m7.1,5.845c0.022,0.4 0.057,0.848 0.1,1.344a0.485,0.485 0 0 0 0.009,0.078c0.041,0.433 0.094,0.9 0.162,1.409c0.058,0.439 0.122,0.9 0.2,1.4c0.065,0.433 0.145,0.886 0.227,1.367l1.82,-1.667a2.987,2.987 0 0 0 0.457,-1.647c0,-0.143 -0.011,-0.293 -0.022,-0.447a14.324,14.324 0 0 0 -0.158,-1.432a12.46,12.46 0 0 0 -0.271,-1.287a6.825,6.825 0 0 0 -0.209,-0.653c-0.065,-0.163 -0.133,-0.312 -0.2,-0.454a28.8,28.8 0 0 1 -2.115,1.989z" fill="url(#svg_210)"/>
   <path d="m10.827,13.6c-0.033,0.037 -0.07,0.069 -0.107,0.108l0,0a1.391,1.391 0 0 1 0.107,-0.108z" fill="#be202e"/>
   <path d="m10.827,13.6c-0.033,0.037 -0.07,0.069 -0.107,0.108l0,0a1.391,1.391 0 0 1 0.107,-0.108z" fill="#be202e" opacity="0.35"/>
   <path d="m10.827,13.6c-0.033,0.037 -0.07,0.069 -0.107,0.108l0,0a1.391,1.391 0 0 1 0.107,-0.108z" fill="url(#svg_209)"/>
   <path d="m10.4,12.359c0.012,-0.009 0.021,-0.021 0.036,-0.033c-0.012,0.009 -0.021,0.021 -0.036,0.033z" fill="#be202e"/>
   <path d="m10.4,12.359c0.012,-0.009 0.021,-0.021 0.036,-0.033c-0.012,0.009 -0.021,0.021 -0.036,0.033z" fill="#be202e" opacity="0.35"/>
   <path d="m10.4,12.359c0.012,-0.009 0.021,-0.021 0.036,-0.033c-0.012,0.009 -0.021,0.021 -0.036,0.033z" fill="url(#svg_208)"/>
   <path d="m24.627,2.891a10.789,10.789 0 0 0 -2.427,1.822l0.6,1.69a20.278,20.278 0 0 1 2.1,-1.965c0.051,-0.042 0.082,-0.066 0.082,-0.066c-0.026,0.024 -0.056,0.042 -0.082,0.066a18.028,18.028 0 0 0 -2,2.013a31.432,31.432 0 0 0 3.288,0.072a3.44,3.44 0 0 0 0.071,-2.639s-0.612,-1.414 -1.632,-0.993z" fill="url(#svg_207)"/>
   <path d="m21.9,11.627a0.02,0.02 0 0 0 0.017,0l-0.121,-0.007c-0.006,0 -0.017,0 -0.023,0.008l0.127,-0.001z" fill="none"/>
   <path d="m20.645,14.308c-0.068,0.007 -0.14,0.007 -0.212,0.008c0.073,-0.001 0.145,-0.001 0.212,-0.008z" fill="none"/>
   <path d="m13.958,19.763c0.014,-0.02 0.023,-0.046 0.037,-0.067c0.255,-0.456 0.5,-0.9 0.75,-1.331c0.276,-0.481 0.55,-0.95 0.816,-1.4c0.28,-0.474 0.559,-0.938 0.829,-1.381c0.285,-0.468 0.561,-0.915 0.835,-1.346c0.223,-0.35 0.439,-0.689 0.654,-1.018c0.072,-0.111 0.143,-0.217 0.214,-0.323c0.142,-0.212 0.278,-0.419 0.413,-0.621c0.127,-0.186 0.248,-0.368 0.369,-0.55c0.042,-0.06 0.084,-0.121 0.12,-0.176l0.021,-0.03l-0.1,0l-0.058,-0.169c-0.008,0.015 -0.021,0.03 -0.029,0.046c-0.189,0.266 -0.378,0.538 -0.563,0.815c-0.106,0.156 -0.213,0.318 -0.325,0.479c-0.3,0.444 -0.591,0.889 -0.879,1.346s-0.584,0.918 -0.867,1.375s-0.554,0.905 -0.826,1.359s-0.537,0.9 -0.8,1.352c-0.274,0.47 -0.542,0.935 -0.8,1.4c-0.059,0.1 -0.119,0.21 -0.173,0.313c-0.21,0.374 -0.413,0.738 -0.611,1.1l0.093,0.274l0.116,0.006a0.078,0.078 0 0 0 0.016,-0.031c0.242,-0.504 0.499,-0.971 0.748,-1.422z" fill="none"/>
   <path d="m19.9,15.646c-0.112,0.006 -0.223,0.006 -0.334,0.006l0,0c0.055,0 0.116,0 0.172,0a1.371,1.371 0 0 0 0.162,-0.006z" fill="#be202e"/>
   <path d="m19.9,15.646c-0.112,0.006 -0.223,0.006 -0.334,0.006l0,0c0.055,0 0.116,0 0.172,0a1.371,1.371 0 0 0 0.162,-0.006z" fill="#be202e" opacity="0.35"/>
   <path d="m20.384,14.314l0,0c0.016,0 0.033,0 0.05,0c0.072,0 0.144,0 0.212,-0.008c-0.084,0 -0.172,0 -0.261,0.006l-0.001,0.002z" fill="#be202e"/>
   <path d="m20.384,14.314l0,0c0.016,0 0.033,0 0.05,0c0.072,0 0.144,0 0.212,-0.008c-0.084,0 -0.172,0 -0.261,0.006l-0.001,0.002z" fill="#be202e" opacity="0.35"/>
   <path d="m19.751,10.091q0.486,-0.652 0.968,-1.272c0.334,-0.428 0.672,-0.838 1.013,-1.237c0.02,-0.025 0.041,-0.049 0.06,-0.069c0.334,-0.389 0.666,-0.761 1,-1.117l-0.6,-1.685c-0.071,0.067 -0.147,0.134 -0.224,0.205c-0.283,0.263 -0.579,0.547 -0.884,0.851c-0.344,0.343 -0.7,0.707 -1.064,1.091c-0.335,0.356 -0.678,0.732 -1.023,1.119c-0.293,0.334 -0.587,0.673 -0.882,1.024l-0.034,0.039l0.767,2.291c0.305,-0.413 0.604,-0.831 0.903,-1.24z" fill="url(#svg_206)"/>
   <path d="m13.063,21.4c-0.2,0.37 -0.4,0.75 -0.605,1.142c0,0.005 -0.007,0.01 -0.008,0.015c-0.03,0.057 -0.06,0.108 -0.085,0.165c-0.138,0.262 -0.256,0.5 -0.534,1.036a2.18,2.18 0 0 1 0.673,1.08a1.768,1.768 0 0 0 -0.388,-1.282c1.558,0.3 2.973,0.1 3.836,-0.945c0.075,-0.094 0.15,-0.194 0.221,-0.3a1.524,1.524 0 0 1 -1.532,0.318l0,0a4.26,4.26 0 0 0 2.376,-1.429c0.141,-0.168 0.284,-0.352 0.431,-0.558a3.456,3.456 0 0 1 -3.383,0.574l-0.888,-0.031c-0.038,0.076 -0.077,0.143 -0.114,0.215z" fill="url(#svg_205)"/>
   <path d="m13.758,19.5c0.262,-0.461 0.529,-0.926 0.8,-1.4c0.26,-0.45 0.525,-0.9 0.8,-1.352s0.549,-0.906 0.826,-1.359s0.573,-0.919 0.867,-1.375s0.587,-0.9 0.879,-1.346c0.107,-0.162 0.213,-0.318 0.325,-0.479c0.184,-0.272 0.374,-0.544 0.563,-0.815c0.008,-0.015 0.021,-0.03 0.029,-0.046l-0.757,-2.284a0.768,0.768 0 0 1 -0.067,0.079c-0.31,0.376 -0.626,0.756 -0.934,1.149s-0.622,0.8 -0.927,1.217c-0.257,0.35 -0.508,0.7 -0.76,1.058c-0.049,0.07 -0.1,0.146 -0.148,0.217c-0.3,0.449 -0.591,0.889 -0.847,1.312c-0.292,0.478 -0.554,0.939 -0.789,1.375c-0.153,0.288 -0.3,0.566 -0.433,0.835c-0.111,0.228 -0.217,0.461 -0.323,0.69c-0.246,0.54 -0.464,1.085 -0.661,1.633l0.771,2.3c0.2,-0.365 0.406,-0.728 0.611,-1.1c0.055,-0.099 0.117,-0.201 0.175,-0.309z" fill="url(#svg_204)"/>
   <path d="m12.17,18.686a16.808,16.808 0 0 0 -0.583,2.01c0,0.022 -0.013,0.048 -0.016,0.07a4.37,4.37 0 0 0 -1.086,-1.251a6.074,6.074 0 0 1 0.805,2.973a2.792,2.792 0 0 1 -1.339,-0.435a2.782,2.782 0 0 0 1.068,0.883a3.4,3.4 0 0 0 -1.747,0.575a3.488,3.488 0 0 1 1.984,-0.069c-1.056,1.99 -2.136,4.203 -3.241,6.558a0.652,0.652 0 0 0 0.5,-0.364c0.2,-0.426 1.51,-3.226 3.453,-6.872c0.054,-0.1 0.113,-0.205 0.168,-0.314c0.016,-0.031 0.03,-0.057 0.046,-0.087q0.308,-0.57 0.637,-1.17c0.052,-0.092 0.1,-0.18 0.151,-0.272l0,-0.005l-0.771,-2.3a0.4,0.4 0 0 0 -0.029,0.07z" fill="url(#svg_203)"/>
   <path d="m18.994,11.544c-0.042,0.06 -0.078,0.116 -0.12,0.176c-0.121,0.182 -0.247,0.363 -0.369,0.55s-0.271,0.409 -0.413,0.621c-0.071,0.106 -0.142,0.212 -0.214,0.323c-0.215,0.329 -0.431,0.669 -0.654,1.018c-0.274,0.431 -0.55,0.878 -0.835,1.346c-0.27,0.443 -0.549,0.906 -0.829,1.381c-0.266,0.454 -0.539,0.919 -0.816,1.4c-0.246,0.43 -0.494,0.875 -0.75,1.331c-0.014,0.02 -0.023,0.046 -0.037,0.067c-0.249,0.451 -0.506,0.918 -0.765,1.4a0.078,0.078 0 0 0 -0.016,0.031l0.888,0.031c-0.015,-0.008 -0.032,-0.01 -0.053,-0.019a6.274,6.274 0 0 0 3.607,-1.389a8.449,8.449 0 0 0 1.368,-1.411a13.487,13.487 0 0 0 0.956,-1.417c0.272,-0.459 0.546,-0.962 0.815,-1.51a3.269,3.269 0 0 1 -0.861,0.162l-0.168,0.009c-0.056,0 -0.111,0 -0.172,0l0,0a3.82,3.82 0 0 0 2.326,-1.688a3.592,3.592 0 0 1 -1.248,0.344c-0.068,0.007 -0.14,0.007 -0.212,0.008c-0.016,0 -0.033,0 -0.055,0l0,0a3.981,3.981 0 0 0 0.945,-0.36a1.707,1.707 0 0 0 0.17,-0.1c0.086,-0.054 0.166,-0.114 0.247,-0.174c0.051,-0.042 0.1,-0.08 0.151,-0.122a2.784,2.784 0 0 0 0.326,-0.335c0.034,-0.039 0.066,-0.073 0.094,-0.114c0.042,-0.06 0.083,-0.115 0.119,-0.171c0.175,-0.251 0.32,-0.48 0.439,-0.684c0.059,-0.1 0.112,-0.194 0.158,-0.282c0.016,-0.036 0.037,-0.067 0.054,-0.1c0.048,-0.1 0.094,-0.186 0.127,-0.264a2.773,2.773 0 0 0 0.107,-0.278l0,0a0.6,0.6 0 0 1 -0.125,0.059a4.24,4.24 0 0 1 -1.265,0.236l0.816,0.031l-0.816,-0.031a0.02,0.02 0 0 0 -0.017,0a1.224,1.224 0 0 0 -0.128,0c0.006,0 0.017,0 0.023,-0.008l-2.79,-0.1c0.005,0.018 -0.002,0.028 -0.008,0.033z" fill="url(#svg_202)"/>
   <path d="m22.9,6.452c-0.3,0.339 -0.628,0.728 -0.986,1.164a0.548,0.548 0 0 0 -0.055,0.07c-0.311,0.381 -0.638,0.8 -0.989,1.263c-0.3,0.4 -0.62,0.824 -0.954,1.29c-0.292,0.4 -0.587,0.829 -0.9,1.281l2.79,0.1a3.379,3.379 0 0 0 1.677,-0.962c0.111,-0.117 0.224,-0.244 0.338,-0.377a16.2,16.2 0 0 0 1.007,-1.281a14.093,14.093 0 0 0 0.8,-1.251a7.72,7.72 0 0 0 0.351,-0.691c0.077,-0.183 0.141,-0.356 0.2,-0.525a32.58,32.58 0 0 1 -3.279,-0.081z" fill="url(#svg_201)"/>
   <path d="m19.738,15.655c-0.056,0 -0.111,0 -0.172,0l0,0a1.573,1.573 0 0 1 0.172,0z" fill="#be202e"/>
   <path d="m19.738,15.655c-0.056,0 -0.111,0 -0.172,0l0,0a1.573,1.573 0 0 1 0.172,0z" fill="#be202e" opacity="0.35"/>
   <path d="m19.738,15.655c-0.056,0 -0.111,0 -0.172,0l0,0a1.573,1.573 0 0 1 0.172,0z" fill="url(#svg_200)"/>
   <path d="m20.378,14.313c0.016,0 0.033,0 0.055,0c-0.016,0 -0.033,0 -0.055,0z" fill="#be202e"/>
   <path d="m20.378,14.313c0.016,0 0.033,0 0.055,0c-0.016,0 -0.033,0 -0.055,0z" fill="#be202e" opacity="0.35"/>
   <path d="m20.378,14.313c0.016,0 0.033,0 0.055,0c-0.016,0 -0.033,0 -0.055,0z" fill="url(#svg_199)"/>
  </symbol>
 </defs>
 <g class="layer">
  <title>Layer 1</title>
  <g id="svg_191"/>
  <g id="svg_195"/>
  <use id="svg_197" transform="matrix(0.240229 0 0 0.237007 -10.8388 -70.0179)" x="123.866313" xlink:href="#svg_196" y="497.799624"/>
  <g id="svg_198"/>
  <use id="svg_218" transform="matrix(0.581734 0 0 0.493692 7.51242 2.89864)" x="20.627985" xlink:href="#svg_217" y="-2.025553"/>
  <g id="svg_219"/>
 </g>
</svg>