<?xml version="1.0" encoding="utf-8"?>
<!-- Generator: Adobe Illustrator 15.0.2, SVG Export Plug-In . SVG Version: 6.00 Build 0)  -->
<!DOCTYPE svg PUBLIC "-//W3C//DTD SVG 1.1//EN" "http://www.w3.org/Graphics/SVG/1.1/DTD/svg11.dtd">
<svg version="1.1" id="Layer_1" xmlns="http://www.w3.org/2000/svg" xmlns:xlink="http://www.w3.org/1999/xlink" x="0px" y="0px"
	 width="300px" height="220px" viewBox="0 0 300 220" enable-background="new 0 0 300 220" xml:space="preserve">
<path fill="#074B64" d="M142.27,94.302l-9.521-18.115c-0.94-1.792-1.851-3.289-2.733-4.495c-0.881-1.204-1.792-2.167-2.732-2.887
	c-0.939-0.72-1.946-1.234-3.019-1.543c-1.073-0.308-2.271-0.463-3.593-0.463h-6.963v27.502h-5.861V31.1h18.202
	c2.38,0,4.679,0.353,6.897,1.058c2.218,0.705,4.194,1.748,5.928,3.129c1.733,1.382,3.121,3.115,4.165,5.201
	c1.044,2.087,1.565,4.511,1.565,7.272c0,2.233-0.338,4.291-1.014,6.17c-0.676,1.88-1.639,3.547-2.887,5.002
	c-1.25,1.454-2.764,2.688-4.541,3.702s-3.782,1.771-6.016,2.27v0.176c0.852,0.353,1.631,0.81,2.336,1.366
	c0.705,0.559,1.389,1.234,2.05,2.027c0.661,0.794,1.314,1.705,1.962,2.732c0.646,1.029,1.321,2.204,2.027,3.526l10.621,19.569
	H142.27z M113.709,36.477v24.99h10.49c2.115,0,4.055-0.309,5.816-0.926c1.764-0.617,3.27-1.499,4.519-2.645s2.218-2.526,2.909-4.143
	c0.689-1.616,1.035-3.438,1.035-5.465c0-3.673-1.184-6.56-3.548-8.661c-2.366-2.1-5.782-3.151-10.247-3.151H113.709z"/>
<path fill="#074B64" d="M159.898,94.302V31.1h30.809v5.377h-24.946V59.66h23.095v5.289h-23.095V88.97h26.356v5.332H159.898z"/>
<path fill="#074B64" d="M107.848,179.457c1.059,0.793,2.225,1.508,3.504,2.137c1.279,0.633,2.584,1.16,3.922,1.588
	c1.336,0.426,2.682,0.748,4.033,0.967c1.352,0.223,2.645,0.33,3.879,0.33c4.789,0,8.375-0.926,10.754-2.775
	c2.379-1.852,3.568-4.51,3.568-7.977c0-1.674-0.277-3.135-0.836-4.385c-0.559-1.248-1.426-2.416-2.602-3.504
	c-1.174-1.086-2.658-2.166-4.451-3.24c-1.791-1.072-3.906-2.283-6.346-3.637c-2.705-1.469-5.018-2.855-6.941-4.164
	c-1.924-1.307-3.498-2.645-4.717-4.01c-1.219-1.367-2.115-2.844-2.688-4.43c-0.572-1.588-0.859-3.395-0.859-5.422
	c0-2.557,0.543-4.848,1.631-6.875c1.086-2.027,2.555-3.754,4.406-5.18c1.852-1.424,4.018-2.518,6.5-3.283
	c2.484-0.764,5.137-1.145,7.957-1.145c4.965,0,9.123,0.689,12.473,2.07v6.479c-3.732-2.145-8.109-3.217-13.135-3.217
	c-1.881,0-3.65,0.229-5.311,0.684s-3.115,1.123-4.363,2.004c-1.25,0.883-2.232,1.979-2.953,3.285s-1.08,2.828-1.08,4.561
	c0,1.646,0.242,3.064,0.729,4.254c0.484,1.189,1.262,2.313,2.336,3.371c1.072,1.059,2.482,2.109,4.23,3.15
	c1.748,1.045,3.887,2.242,6.412,3.592c2.645,1.41,4.951,2.785,6.92,4.123s3.607,2.732,4.914,4.186
	c1.307,1.455,2.285,2.998,2.932,4.629s0.971,3.445,0.971,5.441c0,2.764-0.516,5.195-1.543,7.297c-1.029,2.1-2.469,3.842-4.32,5.221
	c-1.852,1.383-4.055,2.424-6.611,3.129c-2.555,0.705-5.361,1.057-8.418,1.057c-1,0-2.189-0.08-3.57-0.24
	c-1.381-0.162-2.775-0.396-4.188-0.707c-1.41-0.309-2.754-0.676-4.031-1.102c-1.279-0.424-2.314-0.887-3.107-1.389V179.457z"/>
<path fill="#074B64" d="M174.797,130.887v57.824h-5.863v-57.824h-18.201v-5.377h42.311v5.377H174.797z"/>
<g>
	<path fill="#074B64" d="M249.974,114.932c-9.977,1.283-14.965,10.193-14.965,26.73v33.754c0,11.555-2.27,20.049-6.807,25.486
		c-4.538,5.438-11.313,8.305-20.324,8.607v-11.893c2.639-0.076,4.924-0.564,6.855-1.473c1.932-0.906,3.523-2.32,4.779-4.246
		c1.255-1.926,2.188-4.477,2.799-7.646c0.612-3.172,0.918-7.098,0.918-11.779v-31.941c0-16.766,4.764-26.921,14.289-30.47v-0.453
		c-9.525-3.549-14.289-13.441-14.289-29.676V46.744c0-4.455-0.322-8.212-0.965-11.27c-0.645-3.059-1.594-5.55-2.849-7.476
		c-1.255-1.926-2.849-3.342-4.779-4.248s-4.185-1.434-6.759-1.585V10.158c9.012,0.302,15.786,3.172,20.324,8.609
		c4.537,5.436,6.807,14.007,6.807,25.712v34.32c0,16.16,4.988,24.806,14.965,25.938V114.932z"/>
</g>
<path fill="#074B64" d="M95.165,209.842c-9.011-0.303-15.786-3.17-20.323-8.605c-4.538-5.438-6.807-13.934-6.807-25.488v-33.754
	c0-8.305-1.271-14.686-3.814-19.141c-2.542-4.455-6.292-6.984-11.248-7.59V105.07c10.041-1.284,15.062-9.93,15.062-25.938v-34.32
	c0-11.629,2.269-20.181,6.807-25.655c4.538-5.475,11.313-8.363,20.323-8.666v12.007c-5.471,0.377-9.397,2.473-11.779,6.287
	c-2.382,3.813-3.572,9.911-3.572,18.292v33.188c0,16.386-4.763,26.278-14.289,29.676v0.453c9.526,3.474,14.289,13.63,14.289,30.47
	v31.941c0,4.379,0.257,8.117,0.772,11.213s1.384,5.662,2.606,7.703c1.223,2.039,2.8,3.568,4.731,4.586
	c1.931,1.02,4.345,1.568,7.241,1.643V209.842z"/>
<g>
	<path fill="#074B64" d="M133.997,113.113c-0.938,0-1.736-0.328-2.393-0.985s-0.985-1.455-0.985-2.393
		c0-0.962,0.323-1.771,0.968-2.428c0.645-0.657,1.449-0.985,2.411-0.985c0.469,0,0.909,0.088,1.319,0.264
		c0.411,0.176,0.769,0.411,1.073,0.704c0.305,0.293,0.551,0.651,0.739,1.073c0.188,0.422,0.281,0.879,0.281,1.372
		c0,0.469-0.094,0.909-0.281,1.32c-0.188,0.41-0.434,0.769-0.739,1.073c-0.305,0.306-0.663,0.546-1.073,0.722
		S134.466,113.113,133.997,113.113z"/>
	<path fill="#074B64" d="M149.797,113.113c-0.938,0-1.736-0.328-2.393-0.985c-0.657-0.657-0.986-1.455-0.986-2.393
		c0-0.962,0.323-1.771,0.969-2.428c0.645-0.657,1.448-0.985,2.41-0.985c0.469,0,0.909,0.088,1.319,0.264
		c0.41,0.176,0.769,0.411,1.074,0.704c0.305,0.293,0.551,0.651,0.738,1.073s0.281,0.879,0.281,1.372c0,0.469-0.094,0.909-0.281,1.32
		c-0.188,0.41-0.434,0.769-0.738,1.073c-0.306,0.306-0.664,0.546-1.074,0.722S150.266,113.113,149.797,113.113z"/>
	<path fill="#074B64" d="M165.597,113.113c-0.938,0-1.735-0.328-2.393-0.985c-0.656-0.657-0.985-1.455-0.985-2.393
		c0-0.962,0.323-1.771,0.968-2.428c0.646-0.657,1.449-0.985,2.41-0.985c0.47,0,0.91,0.088,1.32,0.264
		c0.41,0.176,0.768,0.411,1.073,0.704c0.306,0.293,0.552,0.651,0.739,1.073s0.281,0.879,0.281,1.372c0,0.469-0.094,0.909-0.281,1.32
		c-0.188,0.41-0.434,0.769-0.739,1.073c-0.306,0.306-0.663,0.546-1.073,0.722S166.066,113.113,165.597,113.113z"/>
</g>
</svg>
